{"glyphs":{"0":{"ha":1386,"x_min":76,"x_max":1333,"o":"m 1333 648 q 1120 180 1333 380 q 640 -12 911 -12 q 240 146 404 -12 q 76 540 76 305 q 289 1006 76 810 q 768 1202 498 1202 q 1168 1042 1004 1202 q 1333 648 1333 883 m 1130 585 q 1006 911 1130 772 q 694 1055 879 1055 q 388 909 514 1055 q 269 585 269 768 q 392 259 269 399 q 703 117 518 117 q 1008 263 883 117 q 1130 585 1130 401 z "},"1":{"ha":499,"x_min":49,"x_max":419,"o":"m 419 100 q 370 49 419 68 q 296 33 334 33 q 256 60 267 33 q 236 252 239 114 q 235 454 235 353 q 227 909 229 700 q 119 864 133 864 q 71 901 95 864 q 49 959 49 932 q 99 1023 49 996 q 222 1081 149 1050 q 347 1116 312 1116 q 387 1082 387 1116 q 381 998 387 1050 q 372 917 373 936 q 366 692 366 825 q 397 232 366 437 q 411 167 399 222 q 419 100 419 126 z "},"2":{"ha":1012,"x_min":90,"x_max":930,"o":"m 930 165 q 916 107 930 140 q 884 61 901 75 q 540 3 829 15 q 186 -1 446 -1 q 118 14 138 -1 q 90 94 90 35 q 94 123 90 111 q 175 232 99 212 q 568 433 425 301 q 736 629 697 553 q 747 685 747 650 q 732 787 747 734 q 609 958 699 898 q 433 1009 530 1009 q 210 888 277 1009 q 180 842 187 850 q 137 822 164 822 q 111 886 111 822 q 149 1053 111 966 q 237 1181 187 1141 q 340 1211 274 1211 q 682 1066 519 1211 q 902 690 852 917 q 907 629 907 665 q 871 525 907 568 q 719 382 842 488 q 472 183 586 267 q 902 198 755 198 q 930 165 930 198 z "},"3":{"ha":1051,"x_min":73,"x_max":974,"o":"m 974 411 q 751 90 974 224 q 355 -30 556 -30 q 231 -16 301 -30 q 113 20 146 -1 q 73 103 73 46 q 118 170 73 170 q 167 155 129 170 q 396 109 278 109 q 642 180 526 109 q 774 388 774 264 q 723 504 774 464 q 593 544 671 544 q 498 533 562 544 q 403 522 435 522 q 345 575 345 522 q 391 671 345 624 q 484 721 419 701 q 568 754 548 741 q 606 856 606 785 q 555 969 606 922 q 437 1016 505 1016 q 321 974 380 1016 q 233 898 296 958 q 171 856 190 856 q 137 917 137 856 q 201 1046 137 964 q 330 1161 255 1116 q 494 1211 412 1211 q 690 1110 597 1211 q 783 905 783 1009 q 667 692 783 789 q 872 600 803 651 q 974 411 974 526 z "},"4":{"ha":1076,"x_min":83,"x_max":1059,"o":"m 1059 499 q 966 445 1059 460 q 837 433 966 445 q 861 270 841 385 q 880 106 880 165 q 837 56 880 76 q 769 39 802 39 q 718 66 730 39 q 700 235 703 104 q 699 415 700 326 q 430 361 545 392 q 292 315 419 358 q 165 281 184 281 q 109 309 130 281 q 88 372 88 338 q 95 407 88 392 q 83 932 83 751 q 194 1088 83 1088 q 247 1044 247 1088 q 239 899 247 991 q 229 753 231 796 q 228 636 228 699 q 231 481 228 559 q 694 575 468 555 q 686 1015 686 863 q 715 1095 686 1063 q 795 1126 745 1126 q 848 1088 848 1126 q 844 1009 848 1057 q 834 933 836 947 q 827 716 827 827 q 830 583 827 648 q 877 585 846 583 q 922 586 907 586 q 1006 562 960 586 q 1059 499 1059 532 z "},"5":{"ha":928,"x_min":58,"x_max":860,"o":"m 860 1099 q 769 1048 860 1059 q 533 1019 544 1020 q 302 962 400 997 l 355 716 q 776 557 661 703 q 854 351 854 458 q 776 155 854 245 q 602 26 709 73 q 401 -11 518 -11 q 191 16 282 -11 q 58 151 58 58 q 88 194 58 194 q 138 179 98 194 q 372 133 263 133 q 581 189 488 133 q 688 363 688 254 q 613 514 688 453 q 453 571 543 571 q 363 558 422 571 q 275 545 305 545 q 178 654 206 545 l 99 966 q 91 1010 91 998 q 140 1086 91 1061 q 393 1164 236 1134 q 658 1192 537 1192 q 739 1188 709 1192 q 814 1158 773 1183 q 860 1099 860 1130 z "},"6":{"ha":1180,"x_min":73,"x_max":1107,"o":"m 1107 476 q 974 227 1107 357 q 732 61 863 117 q 511 12 617 12 q 189 180 313 12 q 73 537 73 334 q 132 800 73 674 q 296 1017 191 926 q 738 1158 461 1158 q 800 1150 784 1158 q 838 1096 825 1138 q 916 907 879 983 q 918 892 918 902 q 885 838 918 865 q 822 810 852 810 q 755 869 788 810 q 713 960 735 914 q 337 774 460 920 q 216 479 214 628 q 876 629 636 629 q 1107 476 1107 629 m 958 416 q 836 468 958 468 q 262 315 690 468 q 511 191 339 191 q 663 214 582 191 q 834 288 743 236 q 958 416 958 357 z "},"7":{"ha":940,"x_min":16,"x_max":941,"o":"m 941 994 q 929 966 941 986 q 585 210 692 570 q 545 73 575 163 q 473 39 529 39 q 415 50 445 39 q 380 92 380 65 q 747 956 380 148 q 600 959 670 959 q 205 926 353 959 q 91 906 107 906 q 37 932 57 906 q 16 991 16 959 q 79 1080 16 1055 q 515 1123 190 1123 q 841 1093 753 1123 q 918 1036 882 1078 q 941 994 941 1008 z "},"8":{"ha":1153,"x_min":72,"x_max":1073,"o":"m 1073 353 q 817 34 1073 157 q 387 -69 606 -69 q 72 132 72 -69 q 159 369 72 236 q 326 567 227 475 q 209 625 255 578 q 163 741 163 671 q 315 1054 163 863 q 610 1218 446 1218 q 806 1116 712 1218 q 894 913 894 1017 q 780 700 894 796 q 977 567 887 667 q 1073 353 1073 458 m 746 857 q 704 993 746 933 q 583 1058 656 1058 q 416 985 502 1058 q 330 826 330 907 q 399 727 330 761 q 526 699 456 699 q 673 735 612 699 q 746 857 746 779 m 868 293 q 804 465 868 391 q 640 543 736 543 q 396 453 530 543 q 248 250 248 354 q 366 123 248 168 q 555 92 456 92 q 758 133 673 92 q 868 293 868 187 z "},"9":{"ha":1169,"x_min":80,"x_max":1082,"o":"m 1082 802 q 1076 735 1082 779 q 1046 395 1046 545 q 1057 229 1046 339 q 1067 62 1067 118 q 1023 7 1067 30 q 947 -12 985 -12 q 899 27 907 -12 q 899 100 899 31 q 889 308 899 170 q 879 515 879 446 q 389 381 656 381 q 180 425 259 381 q 80 601 80 481 q 288 971 80 743 q 468 1111 366 1058 q 689 1168 579 1168 q 891 1101 800 1168 q 1082 802 1082 963 m 879 746 q 814 918 879 845 q 651 997 747 997 q 406 906 540 997 q 258 703 258 807 q 378 578 258 621 q 566 544 467 544 q 769 586 684 544 q 879 746 879 640 z "}," ":{"ha":575,"x_min":0,"x_max":0,"o":""},"!":{"ha":551,"x_min":84,"x_max":568,"o":"m 568 1251 q 479 1051 568 1241 q 365 808 422 930 q 289 555 302 663 q 281 477 285 515 q 220 442 270 442 q 148 483 148 442 q 157 543 148 507 q 174 602 172 598 q 235 937 205 770 q 326 1251 281 1169 q 438 1293 349 1293 q 511 1284 471 1293 q 568 1251 568 1272 m 264 281 q 247 184 264 262 q 221 88 229 106 q 148 56 206 56 q 84 96 84 56 q 95 270 84 212 q 189 304 100 304 q 264 281 264 304 z "},"\"":{"ha":652,"x_min":130,"x_max":564,"o":"m 564 1245 q 544 848 564 970 q 472 780 533 780 q 404 888 404 780 q 406 927 404 903 q 407 960 407 951 q 402 1090 407 1004 q 397 1219 397 1176 q 430 1278 397 1256 q 498 1298 460 1298 q 564 1245 564 1298 m 298 1218 q 278 821 298 947 q 199 758 269 758 q 138 841 138 758 q 140 882 138 854 q 142 922 142 909 q 136 1058 142 968 q 130 1194 130 1147 q 162 1251 130 1229 q 232 1272 194 1272 q 298 1218 298 1272 z "},"#":{"ha":1077,"x_min":98,"x_max":997,"o":"m 997 431 q 971 395 997 406 q 837 370 951 387 q 865 111 865 163 q 822 61 865 81 q 753 45 787 45 q 701 75 709 45 q 689 208 690 113 q 689 347 689 278 q 408 311 578 330 q 418 146 410 229 q 425 79 425 72 q 388 23 425 46 q 321 5 357 5 q 256 64 256 5 q 264 294 256 148 q 199 289 212 289 q 130 324 161 289 q 98 399 98 359 q 134 444 98 438 q 270 448 134 444 q 278 624 273 533 q 213 616 235 616 q 132 649 165 616 q 98 730 98 682 q 134 770 98 765 q 286 774 134 770 q 304 1080 289 876 q 420 1161 312 1161 q 469 1127 469 1161 q 452 954 469 1062 q 426 783 429 826 q 674 815 570 791 q 671 1015 671 956 q 703 1125 671 1093 q 814 1157 734 1157 q 864 1118 864 1157 q 853 989 864 1072 q 838 860 841 898 q 907 878 895 878 q 967 837 939 878 q 996 761 996 796 q 971 720 996 731 q 831 697 956 715 q 830 574 830 650 l 830 530 q 909 551 901 551 q 969 508 941 551 q 997 431 997 465 m 682 490 q 677 673 680 552 q 415 639 589 659 q 408 453 408 557 q 682 490 562 463 z "},"$":{"ha":1152,"x_min":98,"x_max":1067,"o":"m 1067 563 q 1059 507 1067 536 q 677 65 977 212 q 688 -15 688 -7 q 650 -77 688 -50 q 575 -103 612 -103 q 522 -65 533 -103 q 519 5 519 -52 q 366 -18 422 -18 q 165 88 250 -18 q 122 176 122 141 q 140 240 122 201 q 183 285 161 285 q 228 248 186 285 q 328 183 277 208 q 491 148 404 148 l 514 148 q 502 541 506 330 q 198 562 400 547 q 103 631 117 570 q 98 686 98 656 q 245 940 98 793 q 495 1120 377 1067 q 495 1152 495 1133 q 494 1181 494 1172 q 528 1291 494 1249 q 629 1333 563 1333 q 685 1282 685 1333 q 675 1173 685 1271 q 795 1184 754 1184 q 849 1176 833 1184 q 872 1123 872 1162 q 884 1045 872 1097 q 895 967 895 993 q 857 907 895 937 q 788 876 818 876 q 747 922 764 876 q 728 987 746 925 q 694 989 711 989 q 662 987 680 989 q 651 724 654 853 q 841 709 746 716 q 1024 673 951 699 q 1067 563 1067 656 m 496 734 q 496 838 496 769 q 495 944 495 911 q 373 860 442 918 q 292 749 292 791 q 393 731 292 731 q 446 732 411 731 q 496 734 480 734 m 872 433 q 784 506 872 483 q 651 525 783 507 q 665 182 651 380 q 804 281 743 213 q 872 433 872 357 z "},"%":{"ha":1237,"x_min":80,"x_max":1177,"o":"m 1177 444 q 996 179 1177 290 q 673 83 836 83 q 469 170 524 83 q 410 52 439 111 q 311 -16 366 -16 q 250 -3 279 -16 q 214 43 214 14 q 522 534 214 62 q 304 495 410 495 q 153 530 212 495 q 80 661 80 574 q 233 987 80 795 q 518 1153 362 1153 q 685 1086 609 1153 q 792 937 753 1028 q 930 1135 834 1005 q 1021 1180 967 1180 q 1090 1162 1055 1180 q 1133 1109 1133 1141 q 1122 1081 1133 1096 q 1032 972 1092 1044 q 852 741 959 883 q 888 743 871 743 q 1084 645 991 743 q 1177 444 1177 547 m 662 795 q 623 928 662 871 q 505 993 578 993 q 334 918 423 993 q 245 764 245 844 q 321 661 245 699 q 454 631 381 631 q 595 670 538 631 q 662 795 662 713 m 1032 377 q 987 515 1032 454 q 865 585 940 585 q 698 508 792 585 q 604 359 604 431 q 677 258 604 298 q 806 224 738 224 q 951 259 884 224 q 1032 377 1032 302 z "},"&":{"ha":1085,"x_min":71,"x_max":993,"o":"m 993 220 q 991 -37 993 -11 q 955 -101 989 -76 q 879 -126 921 -126 q 827 -88 827 -126 q 844 52 827 -64 q 534 -20 688 -20 q 235 52 368 -20 q 71 290 71 137 q 171 507 71 410 q 377 644 239 574 q 262 842 262 712 q 403 1114 262 963 q 616 1210 491 1210 q 842 1105 747 1210 q 907 987 907 1035 q 895 945 907 967 q 865 921 883 921 q 778 973 857 921 q 636 1025 699 1025 q 498 962 560 1025 q 435 821 435 899 q 475 730 435 751 q 563 713 495 718 q 652 688 625 709 q 697 602 697 651 q 624 534 697 548 q 467 517 545 526 q 313 435 363 499 q 270 315 270 378 q 361 161 270 221 q 540 110 441 110 q 853 209 673 110 l 854 243 q 837 416 856 315 q 811 595 811 571 q 856 643 811 623 q 924 659 891 659 q 974 632 962 659 q 993 220 993 589 z "},"'":{"ha":456,"x_min":88,"x_max":404,"o":"m 404 1237 q 323 1054 404 1218 q 219 863 243 898 q 165 827 195 827 q 114 844 136 827 q 88 887 88 860 q 109 953 88 909 q 171 1108 130 997 q 237 1263 209 1210 q 309 1305 258 1305 q 370 1287 342 1305 q 404 1237 404 1267 z "},"(":{"ha":804,"x_min":56,"x_max":745,"o":"m 745 1161 q 731 1131 745 1146 q 661 1077 707 1105 q 586 1029 597 1038 q 208 477 208 746 q 324 245 208 347 q 563 119 418 164 q 697 77 613 109 q 734 11 734 57 q 716 -54 734 -20 q 669 -95 697 -94 q 528 -26 618 -65 q 387 39 425 19 q 157 227 245 113 q 56 502 56 357 q 236 907 56 696 q 426 1104 324 1008 q 639 1241 576 1241 q 709 1217 673 1241 q 745 1161 745 1194 z "},")":{"ha":852,"x_min":84,"x_max":773,"o":"m 773 646 q 591 241 773 453 q 401 46 505 138 q 189 -92 252 -92 q 122 -68 156 -92 q 84 -11 84 -43 q 98 18 84 4 q 167 72 121 43 q 241 119 231 111 q 620 671 620 401 q 503 903 620 802 q 266 1029 408 985 q 130 1072 216 1040 q 98 1139 98 1092 q 113 1204 98 1171 q 161 1245 132 1242 q 301 1176 209 1217 q 444 1111 400 1135 q 674 921 586 1032 q 773 646 773 792 z "},"*":{"ha":669,"x_min":104,"x_max":595,"o":"m 595 1158 q 456 1031 595 1145 q 529 983 494 1006 q 574 914 574 949 q 561 871 574 894 q 530 848 548 848 q 400 948 524 848 l 400 821 q 376 775 400 793 q 324 757 351 757 q 288 785 288 757 q 298 907 288 802 q 250 867 274 886 q 193 844 218 844 q 145 862 170 844 q 121 903 121 880 q 197 967 121 918 q 293 1025 244 996 q 114 1112 216 1058 q 104 1139 104 1120 q 117 1191 104 1161 q 151 1221 130 1221 q 296 1137 161 1221 q 274 1260 274 1256 q 304 1293 274 1279 q 351 1306 330 1306 q 387 1286 381 1306 q 397 1199 396 1255 q 397 1109 397 1154 q 517 1225 499 1225 q 568 1202 540 1225 q 595 1158 595 1180 z "},"+":{"ha":960,"x_min":91,"x_max":880,"o":"m 880 585 q 854 541 880 552 q 704 513 808 524 q 541 498 624 505 q 578 380 547 468 q 602 263 602 305 q 560 208 602 232 q 487 186 522 186 q 444 212 454 186 q 416 345 426 255 q 404 483 411 414 q 180 464 193 464 q 115 502 142 464 q 91 575 91 534 q 119 620 91 613 q 179 620 121 620 l 298 620 q 389 623 350 620 q 365 883 365 831 q 401 949 365 922 q 477 975 438 975 q 522 941 524 975 l 522 799 q 526 635 522 708 q 665 673 566 640 q 803 701 753 701 q 859 656 833 701 q 880 585 880 618 z "},",":{"ha":537,"x_min":109,"x_max":426,"o":"m 426 205 q 343 22 426 186 q 241 -168 266 -130 q 186 -205 217 -205 q 134 -189 159 -205 q 109 -146 109 -172 q 129 -80 109 -122 q 190 75 149 -38 q 256 229 228 175 q 331 271 279 271 q 392 254 362 271 q 426 205 426 233 z "},"-":{"ha":902,"x_min":62,"x_max":850,"o":"m 850 572 q 827 533 850 545 q 505 471 792 514 q 157 429 225 429 q 90 464 118 429 q 62 540 62 499 q 144 589 62 589 q 174 587 156 589 q 197 587 191 587 q 486 610 358 587 q 639 654 517 616 q 770 690 751 690 q 829 646 804 690 q 850 572 850 606 z "},"‐":{"ha":902,"x_min":62,"x_max":850,"o":"m 850 572 q 827 533 850 545 q 505 471 792 514 q 157 429 225 429 q 90 464 118 429 q 62 540 62 499 q 144 589 62 589 q 174 587 156 589 q 197 587 191 587 q 486 610 358 587 q 639 654 517 616 q 770 690 751 690 q 829 646 804 690 q 850 572 850 606 z "},".":{"ha":433,"x_min":140,"x_max":320,"o":"m 320 248 q 302 149 320 229 q 277 52 285 69 q 203 16 262 16 q 140 60 140 16 q 152 240 140 175 q 243 278 159 278 q 320 248 320 278 z "},"/":{"ha":964,"x_min":45,"x_max":962,"o":"m 962 1120 q 888 1015 962 1101 q 307 198 517 566 q 244 72 277 134 q 138 -3 199 -3 q 79 11 107 -3 q 45 58 45 30 q 92 151 45 80 q 155 243 122 197 q 642 982 430 674 q 760 1149 680 1040 q 857 1191 798 1191 q 925 1175 894 1191 q 962 1120 962 1154 z "},":":{"ha":457,"x_min":142,"x_max":361,"o":"m 361 694 q 344 593 361 674 q 317 494 327 511 q 244 460 302 460 q 182 502 182 460 q 193 684 182 620 q 285 720 199 720 q 361 694 361 720 m 323 248 q 305 149 323 229 q 279 52 288 69 q 206 16 264 16 q 142 60 142 16 q 155 240 142 178 q 247 278 161 278 q 323 248 323 278 z "},";":{"ha":496,"x_min":95,"x_max":412,"o":"m 373 694 q 356 593 373 674 q 331 494 339 511 q 256 460 315 460 q 194 502 194 460 q 206 684 194 617 q 297 720 212 720 q 373 694 373 720 m 412 205 q 331 22 412 184 q 227 -168 251 -132 q 172 -205 203 -205 q 119 -189 144 -205 q 95 -146 95 -172 q 116 -80 95 -125 q 179 73 137 -35 q 244 229 217 176 q 317 271 267 271 q 381 253 350 271 q 412 205 412 235 z "},"<":{"ha":1050,"x_min":35,"x_max":987,"o":"m 987 1166 q 905 1090 987 1142 q 245 557 525 857 q 822 167 410 450 q 937 84 863 140 q 975 16 975 53 q 958 -46 975 -11 q 911 -85 936 -85 q 829 -31 894 -85 q 184 416 471 275 q 94 458 138 438 q 35 528 35 488 q 54 598 35 559 q 104 643 76 644 q 703 1134 224 747 q 829 1233 745 1168 q 880 1253 859 1253 q 948 1224 909 1253 q 987 1166 987 1195 z "},"=":{"ha":1050,"x_min":84,"x_max":948,"o":"m 872 762 q 849 724 872 738 q 526 659 815 704 q 179 617 245 617 q 112 652 140 617 q 84 728 84 686 q 115 770 84 760 q 240 779 133 776 q 378 783 370 783 q 663 844 498 791 q 793 880 785 880 q 852 836 826 880 q 872 762 872 798 m 948 464 q 925 426 948 439 q 600 362 884 406 q 254 320 324 320 q 187 355 216 320 q 159 429 159 391 q 218 477 159 471 q 309 479 264 479 q 582 503 484 486 q 738 547 612 509 q 868 583 854 583 q 926 537 901 583 q 948 464 948 498 z "},">":{"ha":1067,"x_min":62,"x_max":1015,"o":"m 1015 529 q 956 458 1015 490 q 864 416 910 438 q 304 42 586 274 q 220 -33 262 5 q 134 -88 152 -88 q 91 -46 111 -88 q 73 18 73 -8 q 110 84 73 52 q 227 167 117 92 q 803 557 416 298 q 214 1047 547 826 q 76 1138 165 1074 q 62 1166 62 1150 q 97 1225 62 1200 q 167 1249 132 1249 q 219 1234 191 1249 q 285 1185 247 1218 q 347 1134 316 1160 q 943 643 548 974 q 994 598 971 644 q 1015 529 1015 560 z "},"?":{"ha":1104,"x_min":98,"x_max":1065,"o":"m 1065 947 q 985 772 1065 852 q 346 566 806 595 q 327 488 334 502 q 256 460 308 460 q 189 494 189 460 q 214 700 189 684 q 363 705 221 705 q 760 793 659 705 q 837 929 837 861 q 712 1093 837 1029 q 498 1146 609 1146 q 331 1103 419 1146 q 195 1025 277 1078 q 121 982 133 982 q 98 1028 98 982 q 136 1127 98 1090 q 353 1252 216 1203 q 600 1297 483 1297 q 907 1207 766 1297 q 1065 947 1065 1105 m 313 256 q 296 180 313 244 q 273 103 279 115 q 198 75 256 75 q 134 115 134 75 q 146 241 134 187 q 241 279 153 279 q 313 256 313 279 z "},"@":{"ha":1383,"x_min":77,"x_max":1294,"o":"m 1294 685 q 1194 337 1294 510 q 936 57 1095 164 q 591 -56 768 -56 q 226 96 374 -56 q 77 464 77 247 q 178 814 77 639 q 435 1093 277 985 q 777 1207 601 1207 q 1143 1055 993 1207 q 1294 685 1294 902 m 1111 597 q 1012 906 1111 770 q 736 1054 905 1054 q 510 986 627 1054 q 248 536 248 833 q 346 228 248 362 q 621 77 454 77 q 848 146 731 77 q 1111 597 1111 300 m 949 495 q 850 275 949 354 q 614 201 758 201 q 472 236 529 201 q 404 355 404 277 q 494 574 404 449 q 735 700 583 700 q 834 689 780 700 q 738 779 822 779 q 637 764 703 779 q 536 749 571 749 q 475 770 500 749 q 450 826 450 791 q 575 888 450 867 q 741 905 663 905 q 872 882 844 905 q 933 739 918 848 q 945 574 940 655 q 949 495 949 518 m 825 465 q 794 543 825 505 q 727 581 764 581 q 595 522 677 581 q 510 415 510 463 q 560 350 510 374 q 647 330 601 330 q 765 363 712 330 q 825 465 825 403 z "},"A":{"ha":1076,"x_min":16,"x_max":1082,"o":"m 1082 137 q 1044 72 1082 103 q 971 41 1006 41 q 898 115 935 41 q 853 224 875 170 q 210 91 595 161 q 125 -23 163 -23 q 51 22 85 -23 q 16 109 16 68 q 53 187 16 130 q 104 267 77 228 q 297 680 201 433 q 456 1105 377 891 q 563 1177 483 1177 q 621 1141 600 1177 q 656 1051 639 1108 q 688 959 686 964 q 996 296 831 574 q 1046 217 1021 255 q 1082 137 1082 156 m 777 399 q 552 930 704 576 q 290 275 494 798 q 777 399 559 317 z "},"B":{"ha":1119,"x_min":53,"x_max":1034,"o":"m 1034 275 q 789 53 1034 134 q 332 3 640 3 q 237 5 262 3 q 157 46 178 14 q 125 678 136 79 q 114 677 119 677 q 66 712 84 677 q 53 773 53 741 q 157 959 53 846 q 328 1101 245 1053 q 589 1169 445 1169 q 861 1085 755 1169 q 975 830 975 993 q 758 536 975 665 q 937 444 860 507 q 1034 275 1034 365 m 841 815 q 743 954 841 903 q 568 996 663 996 q 267 841 419 996 q 264 671 264 758 q 266 543 264 609 q 765 667 654 553 q 841 815 841 743 m 898 273 q 746 385 898 342 q 534 419 629 419 q 277 335 391 419 q 296 174 285 248 q 559 163 449 163 q 837 203 772 163 q 898 273 898 239 z "},"C":{"ha":1092,"x_min":50,"x_max":1061,"o":"m 1061 338 q 1021 277 1061 309 q 956 232 987 254 q 397 8 637 8 q 137 125 232 8 q 50 401 50 232 q 304 952 50 727 q 878 1171 548 1171 q 956 1147 941 1171 q 964 1065 964 1134 q 979 993 964 1040 q 994 922 994 945 q 951 854 994 887 q 872 822 909 822 q 825 884 844 822 q 806 972 815 928 q 328 738 491 924 q 182 419 182 571 q 270 247 182 313 q 458 187 349 187 q 697 244 557 187 q 913 350 784 279 q 1029 407 1017 407 q 1061 338 1061 407 z "},"D":{"ha":1161,"x_min":73,"x_max":1127,"o":"m 1127 690 q 876 254 1127 435 q 389 52 677 109 q 240 23 339 43 q 161 4 161 4 q 125 30 138 4 q 99 718 113 56 q 73 792 73 749 q 102 871 73 831 q 161 933 115 888 q 662 1162 399 1162 q 991 1023 856 1162 q 1127 690 1127 884 m 945 644 q 840 889 945 789 q 589 989 734 989 q 240 830 408 989 q 235 640 235 735 q 270 187 235 406 q 703 302 524 212 q 945 644 945 427 z "},"E":{"ha":1044,"x_min":42,"x_max":1015,"o":"m 1015 686 q 922 639 1015 650 q 236 509 472 587 q 267 175 241 336 q 560 208 395 175 q 850 271 705 239 q 891 277 875 277 q 947 229 947 277 q 926 165 947 198 q 878 117 905 132 q 567 15 764 52 q 236 -14 399 -14 q 126 31 153 -14 q 99 476 110 60 q 42 563 42 496 q 94 644 42 624 l 95 644 q 85 936 85 783 q 88 1006 85 1002 q 121 1066 94 1046 q 190 1095 134 1078 q 365 1150 278 1122 q 547 1177 467 1177 l 604 1177 q 707 1172 678 1179 q 793 1120 757 1161 q 829 1046 829 1080 q 746 993 829 1000 q 487 966 541 975 q 239 886 380 945 q 232 688 232 792 q 814 783 555 783 q 892 777 864 783 q 968 747 928 773 q 1015 686 1015 716 z "},"F":{"ha":963,"x_min":34,"x_max":940,"o":"m 940 682 q 935 662 940 671 q 856 635 920 642 q 227 509 457 589 q 247 293 229 420 q 266 187 255 240 q 275 80 275 123 q 235 23 275 46 q 164 5 201 5 q 111 34 123 5 q 91 472 99 62 q 34 563 34 487 q 85 642 34 629 q 77 928 77 865 q 79 1001 77 993 q 113 1062 84 1042 q 182 1090 126 1074 q 384 1152 358 1145 q 595 1173 480 1173 q 699 1168 671 1173 q 785 1117 749 1157 q 821 1043 821 1077 q 736 989 821 996 q 479 962 537 972 q 229 882 369 941 q 224 688 224 783 q 757 777 518 777 q 827 773 802 777 q 901 740 861 768 q 940 682 940 712 z "},"G":{"ha":1241,"x_min":39,"x_max":1176,"o":"m 1176 526 q 993 271 1176 419 q 395 0 659 0 q 126 118 221 0 q 39 404 39 227 q 294 948 39 726 q 865 1164 538 1164 q 941 1143 925 1164 q 951 1065 951 1131 q 967 985 951 1038 q 983 906 983 933 q 937 846 983 878 q 861 815 891 815 q 814 879 834 815 q 793 967 810 892 q 354 769 515 924 q 228 606 279 697 q 170 414 170 503 q 245 248 170 311 q 423 184 320 184 q 724 253 548 184 q 983 407 901 321 q 1017 461 1017 442 q 895 511 1017 511 q 514 458 777 511 q 426 438 469 449 q 338 425 369 425 q 297 465 297 425 q 332 544 297 500 q 397 601 362 583 q 614 647 450 629 q 838 662 746 662 q 1176 526 1176 662 z "},"H":{"ha":1058,"x_min":102,"x_max":1043,"o":"m 1043 674 q 933 625 1043 625 q 949 259 933 389 q 962 195 951 252 q 968 130 968 157 q 931 77 968 98 q 860 57 894 57 q 804 90 815 57 q 793 194 793 122 q 795 305 795 49 q 789 456 795 363 q 783 606 784 579 q 275 484 499 568 q 301 199 285 307 q 323 64 323 76 q 279 15 323 37 q 210 -3 241 -3 q 160 24 171 -3 q 151 99 152 47 q 149 176 151 137 q 119 587 134 382 q 102 1000 102 833 q 140 1082 102 1050 q 228 1111 175 1111 q 289 1063 289 1111 q 281 945 289 1061 q 271 665 271 811 q 777 761 524 747 l 774 1001 q 808 1138 774 1108 q 916 1171 848 1171 q 967 1131 968 1171 l 967 1131 l 967 1130 l 966 1122 l 964 1099 l 952 1006 q 936 762 941 891 q 1002 731 971 754 q 1043 674 1043 703 z "},"I":{"ha":845,"x_min":66,"x_max":788,"o":"m 788 1054 q 783 1029 788 1038 q 704 1002 768 1006 q 463 983 567 993 q 450 678 450 826 q 487 186 450 420 q 614 222 496 187 q 743 244 693 244 q 784 212 784 244 q 764 153 784 186 q 720 107 743 121 q 469 24 639 57 q 203 -4 321 -4 q 110 11 138 -4 q 69 91 69 33 q 161 163 69 163 q 202 161 175 163 q 240 159 229 159 q 334 163 293 159 q 309 941 315 422 q 136 875 159 875 q 81 918 102 875 q 66 990 66 951 q 117 1092 66 1062 q 541 1190 288 1190 q 682 1175 636 1190 q 783 1086 757 1153 q 788 1054 788 1072 z "},"J":{"ha":1204,"x_min":81,"x_max":1120,"o":"m 1120 854 q 1053 385 1120 605 q 873 121 1002 221 q 575 20 745 20 q 218 194 362 20 q 81 575 81 358 q 167 651 81 651 q 229 564 216 651 q 353 289 262 370 q 602 190 464 190 q 807 251 719 190 q 925 425 901 315 q 943 635 943 505 q 902 985 943 925 q 837 1006 886 1006 q 696 985 789 1006 q 570 964 604 964 q 538 1004 538 964 q 609 1134 538 1104 q 916 1173 705 1173 q 1063 1145 1028 1173 q 1101 1078 1090 1123 q 1120 854 1120 1001 z "},"K":{"ha":1066,"x_min":103,"x_max":1010,"o":"m 1010 1065 q 951 994 1010 1046 q 659 724 929 975 q 392 468 486 562 q 878 179 632 285 q 941 155 910 167 q 989 118 989 133 q 930 65 989 91 q 848 43 880 43 q 544 138 818 43 q 273 283 384 195 q 294 104 294 122 q 256 47 294 71 q 187 30 224 30 q 133 58 146 30 q 113 495 123 77 q 103 981 103 861 q 104 1054 103 1044 q 151 1120 113 1096 q 233 1143 189 1143 q 293 1104 293 1143 q 286 1016 293 1069 q 275 928 277 936 q 259 583 259 769 l 262 581 l 264 579 q 875 1105 803 1085 q 926 1112 899 1112 q 1010 1065 1010 1112 z "},"L":{"ha":952,"x_min":83,"x_max":944,"o":"m 944 266 q 875 155 944 197 q 579 57 784 99 q 267 19 395 19 q 123 68 149 19 q 95 486 107 99 q 83 945 83 799 q 95 1073 83 1042 q 195 1134 117 1134 q 248 1096 248 1134 q 237 948 248 1103 q 228 690 228 814 q 264 213 228 426 q 532 235 407 213 q 716 279 557 239 q 887 313 853 313 q 944 266 944 313 z "},"M":{"ha":1324,"x_min":22,"x_max":1322,"o":"m 1322 146 q 1286 73 1322 113 q 1217 33 1251 33 q 1190 46 1200 33 q 1074 404 1172 66 q 956 814 1016 610 q 831 381 894 597 q 715 4 731 23 q 678 -20 696 -20 q 616 33 644 -20 q 590 123 590 80 q 591 138 590 132 q 396 769 560 236 q 189 117 340 586 q 149 4 179 77 q 115 -22 133 -22 q 53 33 84 -22 q 22 115 22 81 q 46 187 22 134 q 79 259 62 224 q 216 658 152 427 q 324 1062 270 860 q 399 1135 345 1135 q 450 1066 429 1135 q 472 972 461 1020 q 677 353 532 727 q 833 886 757 579 q 895 1146 853 974 q 970 1218 916 1218 q 1029 1123 1004 1218 q 1055 997 1043 1059 q 1260 311 1154 576 q 1322 146 1322 153 z "},"N":{"ha":1131,"x_min":73,"x_max":1066,"o":"m 1066 1138 q 1054 1059 1066 1126 q 1000 445 1000 773 q 1006 236 1000 321 q 1015 180 1008 221 q 1020 125 1020 146 q 902 37 1020 37 q 854 65 852 37 l 240 760 q 232 509 232 628 q 251 152 232 293 q 262 98 252 144 q 269 42 269 64 q 228 -12 269 9 q 159 -33 193 -33 q 104 0 115 -33 q 85 420 98 16 q 73 868 73 795 q 84 1017 73 990 q 210 1081 109 1081 q 262 1062 245 1081 l 860 366 q 876 735 861 412 q 883 922 880 827 q 901 1108 888 1032 q 1019 1191 911 1191 q 1066 1138 1066 1191 z "},"O":{"ha":1373,"x_min":61,"x_max":1318,"o":"m 1318 648 q 1105 180 1318 380 q 625 -12 895 -12 q 225 146 389 -12 q 61 540 61 305 q 274 1006 61 810 q 753 1202 481 1202 q 1154 1042 989 1202 q 1318 648 1318 883 m 1114 585 q 991 911 1114 772 q 680 1055 864 1055 q 372 909 499 1055 q 252 585 252 768 q 377 259 252 399 q 688 117 503 117 q 993 263 868 117 q 1114 585 1114 401 z "},"P":{"ha":1023,"x_min":57,"x_max":1004,"o":"m 1004 817 q 722 444 1004 586 q 236 302 524 342 q 255 186 239 281 q 270 69 270 115 q 228 16 270 39 q 159 -3 193 -3 q 108 20 125 -3 q 80 709 91 42 q 57 788 57 741 q 187 982 57 860 q 613 1172 393 1172 q 882 1073 766 1172 q 1004 817 1004 968 m 829 774 q 726 936 829 872 q 530 993 633 993 q 222 836 380 993 q 218 663 218 751 q 224 460 218 563 q 749 601 631 472 q 829 774 829 690 z "},"Q":{"ha":1345,"x_min":41,"x_max":1294,"o":"m 1294 652 q 1103 201 1294 399 q 1179 168 1168 174 q 1232 115 1232 140 q 1206 80 1232 96 q 1160 64 1180 64 q 1001 117 1131 64 q 605 -8 823 -8 q 201 144 362 -8 q 41 537 41 296 q 249 1004 41 808 q 730 1200 457 1200 q 1130 1044 966 1200 q 1294 652 1294 887 m 1093 583 q 974 907 1093 765 q 669 1054 848 1054 q 353 911 481 1054 q 229 585 229 773 q 350 262 229 397 q 661 119 476 119 q 865 176 768 119 q 639 316 732 241 q 506 529 506 427 q 521 595 506 559 q 563 642 538 642 q 595 621 574 642 q 780 439 688 530 q 982 277 888 338 q 1093 583 1093 410 z "},"R":{"ha":1054,"x_min":54,"x_max":1029,"o":"m 1029 811 q 826 487 1029 621 q 449 339 675 389 q 792 189 650 224 q 841 178 808 186 q 871 142 871 165 q 846 100 871 119 q 798 80 822 80 q 540 132 705 80 q 292 228 388 178 q 305 149 293 206 q 316 68 316 99 q 278 16 316 37 q 212 0 247 0 q 155 27 168 0 q 126 699 136 64 q 76 736 98 705 q 54 796 54 766 q 91 875 54 829 q 612 1168 324 1168 q 898 1074 774 1168 q 1029 811 1029 971 m 867 783 q 766 943 867 878 q 575 998 678 998 q 269 842 425 998 q 264 670 264 757 q 270 465 264 568 q 787 605 669 476 q 867 783 867 694 z "},"S":{"ha":1222,"x_min":75,"x_max":1158,"o":"m 1158 583 q 1150 522 1158 547 q 852 146 1082 296 q 388 1 631 1 q 247 31 296 1 q 126 159 178 72 q 75 327 75 247 q 110 391 75 391 q 172 350 144 391 q 216 283 194 316 q 521 163 305 163 q 760 216 652 163 q 926 387 882 275 q 941 450 941 425 q 898 506 941 488 q 557 562 787 548 q 203 576 380 568 q 115 609 140 582 q 91 699 91 636 q 210 907 91 772 q 857 1200 468 1200 q 920 1190 902 1200 q 943 1139 939 1179 q 959 1061 945 1119 q 970 982 970 1010 q 922 922 970 952 q 844 891 875 891 q 785 1002 814 891 q 739 1004 762 1004 q 331 808 483 1004 q 304 762 304 774 q 464 749 304 745 l 461 749 q 795 732 586 749 q 1109 688 1043 712 q 1158 583 1158 670 z "},"T":{"ha":863,"x_min":5,"x_max":867,"o":"m 867 1042 q 859 1016 867 1025 q 765 989 841 993 q 488 971 618 982 q 477 658 477 806 q 511 197 477 403 q 530 72 530 80 q 487 23 530 45 q 418 5 450 5 q 368 34 381 5 q 338 940 347 84 q 212 894 275 917 q 92 861 119 861 q 27 901 53 861 q 5 977 5 935 q 65 1078 5 1048 q 593 1175 270 1175 q 743 1161 692 1175 q 859 1073 827 1138 q 867 1042 867 1055 z "},"U":{"ha":1077,"x_min":90,"x_max":983,"o":"m 983 104 q 947 50 983 71 q 873 30 910 30 q 819 60 831 30 q 811 241 815 69 q 503 107 694 175 q 187 33 290 33 q 114 113 114 33 q 115 146 114 122 q 115 180 117 168 l 115 197 q 100 570 114 301 q 90 941 90 806 q 106 1085 90 1048 q 228 1143 133 1143 q 283 1104 283 1143 q 267 959 283 1109 q 248 490 248 793 q 271 241 248 262 q 297 235 279 235 q 551 311 361 235 q 803 425 700 372 q 788 947 788 742 q 804 1082 788 1044 q 918 1145 831 1145 q 982 1104 982 1145 q 975 1009 982 1066 q 963 916 964 925 q 947 548 947 755 q 967 248 947 403 q 983 104 983 117 z "},"V":{"ha":871,"x_min":23,"x_max":853,"o":"m 853 1039 q 818 954 853 1023 q 772 864 796 909 q 563 214 631 566 q 534 64 559 160 q 435 22 517 22 q 328 65 355 22 q 165 571 307 98 q 23 1084 23 1044 q 122 1152 23 1152 q 186 1074 167 1152 q 205 959 195 1016 q 404 283 264 628 q 529 637 446 401 q 595 833 563 736 q 673 1021 640 960 q 776 1081 707 1081 q 822 1073 800 1081 q 853 1039 853 1059 z "},"W":{"ha":1354,"x_min":27,"x_max":1329,"o":"m 1329 1053 q 1271 906 1329 1042 q 1134 510 1200 739 q 1027 106 1134 510 q 952 34 1006 34 q 913 72 929 34 q 857 259 905 91 q 773 498 829 357 q 680 731 727 614 q 454 22 551 368 q 380 -49 435 -49 q 340 -13 354 -49 q 315 79 327 23 q 294 171 304 125 q 85 868 178 635 q 27 1023 27 1017 q 64 1097 27 1055 q 134 1138 102 1138 q 161 1123 151 1138 q 270 776 186 1090 q 395 354 309 623 q 590 913 453 553 q 701 1050 643 1050 q 745 1008 727 1050 q 764 943 749 998 q 848 709 772 913 q 954 400 903 559 q 1169 1076 1002 559 q 1202 1165 1177 1107 q 1234 1192 1217 1192 q 1298 1137 1267 1192 q 1329 1053 1329 1086 z "},"X":{"ha":985,"x_min":61,"x_max":928,"o":"m 928 1093 q 921 1069 928 1081 q 857 985 921 1067 q 578 576 722 807 q 674 457 644 494 q 776 345 728 392 q 879 241 814 312 q 891 201 891 225 q 868 123 891 167 q 808 76 841 76 q 787 84 798 76 q 712 165 753 110 q 647 254 680 210 q 499 445 597 316 q 346 160 400 277 q 288 34 330 115 q 222 1 267 1 q 157 18 189 1 q 119 69 119 39 q 399 576 119 91 q 232 784 315 681 q 80 1001 134 907 q 61 1072 61 1035 q 80 1141 61 1105 q 136 1181 103 1181 q 170 1164 153 1181 q 217 1096 191 1142 q 258 1023 258 1023 q 475 709 361 860 q 597 925 536 818 q 732 1134 671 1051 q 812 1173 762 1173 q 886 1153 852 1173 q 928 1093 928 1130 z "},"Y":{"ha":1019,"x_min":27,"x_max":1040,"o":"m 1040 1096 q 978 994 1040 1078 q 898 888 937 941 q 475 194 632 525 q 423 73 450 134 q 327 4 385 4 q 267 22 296 4 q 232 72 232 45 q 438 453 232 80 l 247 704 q 50 970 178 791 q 27 1036 27 1005 q 54 1109 27 1065 q 109 1153 80 1153 q 138 1133 122 1153 q 201 1032 144 1124 q 514 586 339 806 q 745 977 544 639 q 844 1137 774 1032 q 925 1176 875 1176 q 998 1156 963 1176 q 1040 1096 1040 1131 z "},"Z":{"ha":1069,"x_min":50,"x_max":1044,"o":"m 1044 174 q 1017 118 1044 144 q 959 80 989 92 q 397 18 779 18 q 191 24 239 18 q 50 132 50 47 q 64 180 50 153 q 109 243 77 206 q 160 302 133 273 q 692 970 335 526 q 624 971 656 971 q 220 925 425 971 q 193 922 205 922 q 127 950 152 922 q 103 1020 103 978 q 111 1059 103 1039 q 315 1145 133 1115 q 553 1162 438 1162 q 791 1141 685 1162 q 966 1023 966 1105 q 939 959 966 994 q 875 890 917 929 q 807 827 814 834 q 277 183 502 519 q 420 178 345 178 q 929 214 553 178 q 974 217 959 217 q 1044 174 1044 217 z "},"[":{"ha":785,"x_min":69,"x_max":705,"o":"m 705 1282 q 693 1213 705 1248 q 648 1168 677 1168 q 528 1189 610 1168 q 396 1210 445 1210 q 255 1199 345 1210 q 229 618 229 888 q 247 303 229 513 q 264 -12 264 94 q 395 -20 347 -20 q 528 -1 445 -20 q 648 18 610 18 q 693 -24 675 18 q 705 -91 705 -58 q 684 -142 705 -129 q 385 -159 656 -159 q 275 -159 349 -159 q 165 -157 201 -157 q 110 -118 130 -157 q 94 -47 94 -84 q 99 -12 94 -27 q 69 947 69 669 q 92 1297 69 1249 q 163 1344 115 1344 q 274 1345 199 1344 q 385 1345 347 1345 q 684 1331 656 1345 q 705 1282 705 1318 z "},"\\":{"ha":982,"x_min":42,"x_max":960,"o":"m 960 54 q 920 11 960 30 q 860 -3 887 -3 q 787 33 812 -3 q 742 106 765 58 q 703 183 707 174 q 113 1012 477 576 q 68 1063 91 1038 q 42 1122 42 1099 q 80 1175 42 1154 q 149 1192 114 1192 q 243 1149 201 1192 q 304 1067 271 1119 q 359 982 332 1025 q 846 243 510 761 q 910 148 878 194 q 960 54 960 72 z "},"]":{"ha":825,"x_min":91,"x_max":727,"o":"m 727 985 q 707 328 727 779 q 696 -4 696 52 q 697 -33 696 -14 q 699 -62 699 -53 q 682 -122 699 -94 q 632 -157 661 -157 q 526 -157 597 -157 q 419 -159 454 -159 q 113 -144 134 -159 q 91 -90 91 -129 q 103 -23 91 -56 q 146 18 119 18 q 267 -1 184 18 q 401 -20 350 -20 q 530 -12 450 -20 q 547 299 530 92 q 564 610 564 506 q 538 1199 564 884 q 399 1210 450 1210 q 267 1189 349 1210 q 146 1168 184 1168 q 103 1211 119 1168 q 91 1276 91 1242 q 113 1332 91 1318 q 412 1345 136 1345 q 522 1345 450 1345 q 632 1344 595 1344 q 704 1297 681 1344 q 727 985 727 1251 z "},"^":{"ha":609,"x_min":46,"x_max":547,"o":"m 547 987 q 532 951 547 972 q 498 930 518 930 q 453 970 476 930 q 292 1173 382 1086 q 157 977 278 1154 q 103 935 129 935 q 67 947 88 935 q 46 978 46 960 q 69 1020 46 991 q 228 1253 187 1157 q 278 1299 247 1299 q 311 1289 290 1299 q 336 1265 331 1279 q 502 1062 370 1225 q 547 987 547 1005 z "},"_":{"ha":1130,"x_min":57,"x_max":1092,"o":"m 1092 -110 q 1053 -160 1092 -151 q 951 -165 1043 -163 q 681 -171 796 -171 l 506 -171 q 172 -161 288 -171 q 57 -43 57 -152 q 103 1 57 1 q 351 -16 163 1 q 623 -31 498 -31 q 882 -9 705 -31 q 998 3 987 3 q 1065 -33 1039 3 q 1092 -110 1092 -68 z "},"`":{"ha":537,"x_min":49,"x_max":503,"o":"m 498 964 q 472 917 491 936 q 425 899 452 892 q 366 930 401 903 q 225 1021 327 960 q 85 1115 132 1078 q 58 1196 49 1146 q 88 1253 64 1227 q 141 1278 113 1283 q 304 1161 160 1274 q 472 1023 441 1054 q 498 964 503 993 z "},"a":{"ha":1076,"x_min":16,"x_max":1082,"o":"m 1082 137 q 1044 72 1082 103 q 971 41 1006 41 q 898 115 935 41 q 853 224 875 170 q 210 91 595 161 q 125 -23 163 -23 q 51 22 85 -23 q 16 109 16 68 q 53 187 16 130 q 104 267 77 228 q 297 680 201 433 q 456 1105 377 891 q 563 1177 483 1177 q 621 1141 600 1177 q 656 1051 639 1108 q 688 959 686 964 q 996 296 831 574 q 1046 217 1021 255 q 1082 137 1082 156 m 777 399 q 552 930 704 576 q 290 275 494 798 q 777 399 559 317 z "},"b":{"ha":1119,"x_min":53,"x_max":1034,"o":"m 1034 275 q 789 53 1034 134 q 332 3 640 3 q 237 5 262 3 q 157 46 178 14 q 125 678 136 79 q 114 677 119 677 q 66 712 84 677 q 53 773 53 741 q 157 959 53 846 q 328 1101 245 1053 q 589 1169 445 1169 q 861 1085 755 1169 q 975 830 975 993 q 758 536 975 665 q 937 444 860 507 q 1034 275 1034 365 m 841 815 q 743 954 841 903 q 568 996 663 996 q 267 841 419 996 q 264 671 264 758 q 266 543 264 609 q 765 667 654 553 q 841 815 841 743 m 898 273 q 746 385 898 342 q 534 419 629 419 q 277 335 391 419 q 296 174 285 248 q 559 163 449 163 q 837 203 772 163 q 898 273 898 239 z "},"c":{"ha":1092,"x_min":50,"x_max":1061,"o":"m 1061 338 q 1021 277 1061 309 q 956 232 987 254 q 397 8 637 8 q 137 125 232 8 q 50 401 50 232 q 304 952 50 727 q 878 1171 548 1171 q 956 1147 941 1171 q 964 1065 964 1134 q 979 993 964 1040 q 994 922 994 945 q 951 854 994 887 q 872 822 909 822 q 825 884 844 822 q 806 972 815 928 q 328 738 491 924 q 182 419 182 571 q 270 247 182 313 q 458 187 349 187 q 697 244 557 187 q 913 350 784 279 q 1029 407 1017 407 q 1061 338 1061 407 z "},"d":{"ha":1161,"x_min":73,"x_max":1127,"o":"m 1127 690 q 876 254 1127 435 q 389 52 677 109 q 240 23 339 43 q 161 4 161 4 q 125 30 138 4 q 99 718 113 56 q 73 792 73 749 q 102 871 73 831 q 161 933 115 888 q 662 1162 399 1162 q 991 1023 856 1162 q 1127 690 1127 884 m 945 644 q 840 889 945 789 q 589 989 734 989 q 240 830 408 989 q 235 640 235 735 q 270 187 235 406 q 703 302 524 212 q 945 644 945 427 z "},"e":{"ha":1044,"x_min":42,"x_max":1015,"o":"m 1015 686 q 922 639 1015 650 q 236 509 472 587 q 267 175 241 336 q 560 208 395 175 q 850 271 705 239 q 891 277 875 277 q 947 229 947 277 q 926 165 947 198 q 878 117 905 132 q 567 15 764 52 q 236 -14 399 -14 q 126 31 153 -14 q 99 476 110 60 q 42 563 42 496 q 94 644 42 624 l 95 644 q 85 936 85 783 q 88 1006 85 1002 q 121 1066 94 1046 q 190 1095 134 1078 q 365 1150 278 1122 q 547 1177 467 1177 l 604 1177 q 707 1172 678 1179 q 793 1120 757 1161 q 829 1046 829 1080 q 746 993 829 1000 q 487 966 541 975 q 239 886 380 945 q 232 688 232 792 q 814 783 555 783 q 892 777 864 783 q 968 747 928 773 q 1015 686 1015 716 z "},"f":{"ha":963,"x_min":34,"x_max":940,"o":"m 940 682 q 935 662 940 671 q 856 635 920 642 q 227 509 457 589 q 247 293 229 420 q 266 187 255 240 q 275 80 275 123 q 235 23 275 46 q 164 5 201 5 q 111 34 123 5 q 91 472 99 62 q 34 563 34 487 q 85 642 34 629 q 77 928 77 865 q 79 1001 77 993 q 113 1062 84 1042 q 182 1090 126 1074 q 384 1152 358 1145 q 595 1173 480 1173 q 699 1168 671 1173 q 785 1117 749 1157 q 821 1043 821 1077 q 736 989 821 996 q 479 962 537 972 q 229 882 369 941 q 224 688 224 783 q 757 777 518 777 q 827 773 802 777 q 901 740 861 768 q 940 682 940 712 z "},"g":{"ha":1241,"x_min":39,"x_max":1176,"o":"m 1176 526 q 993 271 1176 419 q 395 0 659 0 q 126 118 221 0 q 39 404 39 227 q 294 948 39 726 q 865 1164 538 1164 q 941 1143 925 1164 q 951 1065 951 1131 q 967 985 951 1038 q 983 906 983 933 q 937 846 983 878 q 861 815 891 815 q 814 879 834 815 q 793 967 810 892 q 354 769 515 924 q 228 606 279 697 q 170 414 170 503 q 245 248 170 311 q 423 184 320 184 q 724 253 548 184 q 983 407 901 321 q 1017 461 1017 442 q 895 511 1017 511 q 514 458 777 511 q 426 438 469 449 q 338 425 369 425 q 297 465 297 425 q 332 544 297 500 q 397 601 362 583 q 614 647 450 629 q 838 662 746 662 q 1176 526 1176 662 z "},"h":{"ha":1058,"x_min":102,"x_max":1043,"o":"m 1043 674 q 933 625 1043 625 q 949 259 933 389 q 962 195 951 252 q 968 130 968 157 q 931 77 968 98 q 860 57 894 57 q 804 90 815 57 q 793 194 793 122 q 795 305 795 49 q 789 456 795 363 q 783 606 784 579 q 275 484 499 568 q 301 199 285 307 q 323 64 323 76 q 279 15 323 37 q 210 -3 241 -3 q 160 24 171 -3 q 151 99 152 47 q 149 176 151 137 q 119 587 134 382 q 102 1000 102 833 q 140 1082 102 1050 q 228 1111 175 1111 q 289 1063 289 1111 q 281 945 289 1061 q 271 665 271 811 q 777 761 524 747 l 774 1001 q 808 1138 774 1108 q 916 1171 848 1171 q 967 1131 968 1171 l 967 1131 l 967 1130 l 966 1122 l 964 1099 l 952 1006 q 936 762 941 891 q 1002 731 971 754 q 1043 674 1043 703 z "},"i":{"ha":403,"x_min":110,"x_max":301,"o":"m 301 96 q 259 46 301 66 q 190 30 224 30 q 130 119 130 30 q 130 153 130 130 q 132 183 132 174 l 130 208 q 118 616 129 311 q 110 1023 110 869 q 245 1142 110 1142 q 300 1104 300 1142 q 293 1009 300 1066 q 281 916 282 926 q 266 590 266 754 q 283 232 266 381 q 294 164 285 224 q 301 96 301 123 z "},"j":{"ha":1204,"x_min":81,"x_max":1120,"o":"m 1120 854 q 1053 385 1120 605 q 873 121 1002 221 q 575 20 745 20 q 218 194 362 20 q 81 575 81 358 q 167 651 81 651 q 229 564 216 651 q 353 289 262 370 q 602 190 464 190 q 807 251 719 190 q 925 425 901 315 q 943 635 943 505 q 902 985 943 925 q 837 1006 886 1006 q 696 985 789 1006 q 570 964 604 964 q 538 1004 538 964 q 609 1134 538 1104 q 916 1173 705 1173 q 1063 1145 1028 1173 q 1101 1078 1090 1123 q 1120 854 1120 1001 z "},"k":{"ha":1066,"x_min":103,"x_max":1010,"o":"m 1010 1065 q 951 994 1010 1046 q 659 724 929 975 q 392 468 486 562 q 878 179 632 285 q 941 155 910 167 q 989 118 989 133 q 930 65 989 91 q 848 43 880 43 q 544 138 818 43 q 273 283 384 195 q 294 104 294 122 q 256 47 294 71 q 187 30 224 30 q 133 58 146 30 q 113 495 123 77 q 103 981 103 861 q 104 1054 103 1044 q 151 1120 113 1096 q 233 1143 189 1143 q 293 1104 293 1143 q 286 1016 293 1069 q 275 928 277 936 q 259 583 259 769 l 262 581 l 264 579 q 875 1105 803 1085 q 926 1112 899 1112 q 1010 1065 1010 1112 z "},"l":{"ha":952,"x_min":83,"x_max":944,"o":"m 944 266 q 875 155 944 197 q 579 57 784 99 q 267 19 395 19 q 123 68 149 19 q 95 486 107 99 q 83 945 83 799 q 95 1073 83 1042 q 195 1134 117 1134 q 248 1096 248 1134 q 237 948 248 1103 q 228 690 228 814 q 264 213 228 426 q 532 235 407 213 q 716 279 557 239 q 887 313 853 313 q 944 266 944 313 z "},"m":{"ha":1324,"x_min":22,"x_max":1322,"o":"m 1322 146 q 1286 73 1322 113 q 1217 33 1251 33 q 1190 46 1200 33 q 1074 404 1172 66 q 956 814 1016 610 q 831 381 894 597 q 715 4 731 23 q 678 -20 696 -20 q 616 33 644 -20 q 590 123 590 80 q 591 138 590 132 q 396 769 560 236 q 189 117 340 586 q 149 4 179 77 q 115 -22 133 -22 q 53 33 84 -22 q 22 115 22 81 q 46 187 22 134 q 79 259 62 224 q 216 658 152 427 q 324 1062 270 860 q 399 1135 345 1135 q 450 1066 429 1135 q 472 972 461 1020 q 677 353 532 727 q 833 886 757 579 q 895 1146 853 974 q 970 1218 916 1218 q 1029 1123 1004 1218 q 1055 997 1043 1059 q 1260 311 1154 576 q 1322 146 1322 153 z "},"n":{"ha":1131,"x_min":73,"x_max":1066,"o":"m 1066 1138 q 1054 1059 1066 1126 q 1000 445 1000 773 q 1006 236 1000 321 q 1015 180 1008 221 q 1020 125 1020 146 q 902 37 1020 37 q 854 65 852 37 l 240 760 q 232 509 232 628 q 251 152 232 293 q 262 98 252 144 q 269 42 269 64 q 228 -12 269 9 q 159 -33 193 -33 q 104 0 115 -33 q 85 420 98 16 q 73 868 73 795 q 84 1017 73 990 q 210 1081 109 1081 q 262 1062 245 1081 l 860 366 q 876 735 861 412 q 883 922 880 827 q 901 1108 888 1032 q 1019 1191 911 1191 q 1066 1138 1066 1191 z "},"o":{"ha":1373,"x_min":61,"x_max":1318,"o":"m 1318 648 q 1105 180 1318 380 q 625 -12 895 -12 q 225 146 389 -12 q 61 540 61 305 q 274 1006 61 810 q 753 1202 481 1202 q 1154 1042 989 1202 q 1318 648 1318 883 m 1114 585 q 991 911 1114 772 q 680 1055 864 1055 q 372 909 499 1055 q 252 585 252 768 q 377 259 252 399 q 688 117 503 117 q 993 263 868 117 q 1114 585 1114 401 z "},"p":{"ha":1023,"x_min":57,"x_max":1004,"o":"m 1004 817 q 722 444 1004 586 q 236 302 524 342 q 255 186 239 281 q 270 69 270 115 q 228 16 270 39 q 159 -3 193 -3 q 108 20 125 -3 q 80 709 91 42 q 57 788 57 741 q 187 982 57 860 q 613 1172 393 1172 q 882 1073 766 1172 q 1004 817 1004 968 m 829 774 q 726 936 829 872 q 530 993 633 993 q 222 836 380 993 q 218 663 218 751 q 224 460 218 563 q 749 601 631 472 q 829 774 829 690 z "},"q":{"ha":1345,"x_min":41,"x_max":1294,"o":"m 1294 652 q 1103 201 1294 399 q 1179 168 1168 174 q 1232 115 1232 140 q 1206 80 1232 96 q 1160 64 1180 64 q 1001 117 1131 64 q 605 -8 823 -8 q 201 144 362 -8 q 41 537 41 296 q 249 1004 41 808 q 730 1200 457 1200 q 1130 1044 966 1200 q 1294 652 1294 887 m 1093 583 q 974 907 1093 765 q 669 1054 848 1054 q 353 911 481 1054 q 229 585 229 773 q 350 262 229 397 q 661 119 476 119 q 865 176 768 119 q 639 316 732 241 q 506 529 506 427 q 521 595 506 559 q 563 642 538 642 q 595 621 574 642 q 780 439 688 530 q 982 277 888 338 q 1093 583 1093 410 z "},"r":{"ha":1054,"x_min":54,"x_max":1029,"o":"m 1029 811 q 826 487 1029 621 q 449 339 675 389 q 792 189 650 224 q 841 178 808 186 q 871 142 871 165 q 846 100 871 119 q 798 80 822 80 q 540 132 705 80 q 292 228 388 178 q 305 149 293 206 q 316 68 316 99 q 278 16 316 37 q 212 0 247 0 q 155 27 168 0 q 126 699 136 64 q 76 736 98 705 q 54 796 54 766 q 91 875 54 829 q 612 1168 324 1168 q 898 1074 774 1168 q 1029 811 1029 971 m 867 783 q 766 943 867 878 q 575 998 678 998 q 269 842 425 998 q 264 670 264 757 q 270 465 264 568 q 787 605 669 476 q 867 783 867 694 z "},"s":{"ha":1222,"x_min":75,"x_max":1158,"o":"m 1158 583 q 1150 522 1158 547 q 852 146 1082 296 q 388 1 631 1 q 247 31 296 1 q 126 159 178 72 q 75 327 75 247 q 110 391 75 391 q 172 350 144 391 q 216 283 194 316 q 521 163 305 163 q 760 216 652 163 q 926 387 882 275 q 941 450 941 425 q 898 506 941 488 q 557 562 787 548 q 203 576 380 568 q 115 609 140 582 q 91 699 91 636 q 210 907 91 772 q 857 1200 468 1200 q 920 1190 902 1200 q 943 1139 939 1179 q 959 1061 945 1119 q 970 982 970 1010 q 922 922 970 952 q 844 891 875 891 q 785 1002 814 891 q 739 1004 762 1004 q 331 808 483 1004 q 304 762 304 774 q 464 749 304 745 l 461 749 q 795 732 586 749 q 1109 688 1043 712 q 1158 583 1158 670 z "},"t":{"ha":863,"x_min":5,"x_max":867,"o":"m 867 1042 q 859 1016 867 1025 q 765 989 841 993 q 488 971 618 982 q 477 658 477 806 q 511 197 477 403 q 530 72 530 80 q 487 23 530 45 q 418 5 450 5 q 368 34 381 5 q 338 940 347 84 q 212 894 275 917 q 92 861 119 861 q 27 901 53 861 q 5 977 5 935 q 65 1078 5 1048 q 593 1175 270 1175 q 743 1161 692 1175 q 859 1073 827 1138 q 867 1042 867 1055 z "},"u":{"ha":1077,"x_min":90,"x_max":983,"o":"m 983 104 q 947 50 983 71 q 873 30 910 30 q 819 60 831 30 q 811 241 815 69 q 503 107 694 175 q 187 33 290 33 q 114 113 114 33 q 115 146 114 122 q 115 180 117 168 l 115 197 q 100 570 114 301 q 90 941 90 806 q 106 1085 90 1048 q 228 1143 133 1143 q 283 1104 283 1143 q 267 959 283 1109 q 248 490 248 793 q 271 241 248 262 q 297 235 279 235 q 551 311 361 235 q 803 425 700 372 q 788 947 788 742 q 804 1082 788 1044 q 918 1145 831 1145 q 982 1104 982 1145 q 975 1009 982 1066 q 963 916 964 925 q 947 548 947 755 q 967 248 947 403 q 983 104 983 117 z "},"v":{"ha":871,"x_min":23,"x_max":853,"o":"m 853 1039 q 818 954 853 1023 q 772 864 796 909 q 563 214 631 566 q 534 64 559 160 q 435 22 517 22 q 328 65 355 22 q 165 571 307 98 q 23 1084 23 1044 q 122 1152 23 1152 q 186 1074 167 1152 q 205 959 195 1016 q 404 283 264 628 q 529 637 446 401 q 595 833 563 736 q 673 1021 640 960 q 776 1081 707 1081 q 822 1073 800 1081 q 853 1039 853 1059 z "},"w":{"ha":1354,"x_min":27,"x_max":1329,"o":"m 1329 1053 q 1271 906 1329 1042 q 1134 510 1200 739 q 1027 106 1134 510 q 952 34 1006 34 q 913 72 929 34 q 857 259 905 91 q 773 498 829 357 q 680 731 727 614 q 454 22 551 368 q 380 -49 435 -49 q 340 -13 354 -49 q 315 79 327 23 q 294 171 304 125 q 85 868 178 635 q 27 1023 27 1017 q 64 1097 27 1055 q 134 1138 102 1138 q 161 1123 151 1138 q 270 776 186 1090 q 395 354 309 623 q 590 913 453 553 q 701 1050 643 1050 q 745 1008 727 1050 q 764 943 749 998 q 848 709 772 913 q 954 400 903 559 q 1169 1076 1002 559 q 1202 1165 1177 1107 q 1234 1192 1217 1192 q 1298 1137 1267 1192 q 1329 1053 1329 1086 z "},"x":{"ha":985,"x_min":61,"x_max":928,"o":"m 928 1093 q 921 1069 928 1081 q 857 985 921 1067 q 578 576 722 807 q 674 457 644 494 q 776 345 728 392 q 879 241 814 312 q 891 201 891 225 q 868 123 891 167 q 808 76 841 76 q 787 84 798 76 q 712 165 753 110 q 647 254 680 210 q 499 445 597 316 q 346 160 400 277 q 288 34 330 115 q 222 1 267 1 q 157 18 189 1 q 119 69 119 39 q 399 576 119 91 q 232 784 315 681 q 80 1001 134 907 q 61 1072 61 1035 q 80 1141 61 1105 q 136 1181 103 1181 q 170 1164 153 1181 q 217 1096 191 1142 q 258 1023 258 1023 q 475 709 361 860 q 597 925 536 818 q 732 1134 671 1051 q 812 1173 762 1173 q 886 1153 852 1173 q 928 1093 928 1130 z "},"y":{"ha":1019,"x_min":27,"x_max":1040,"o":"m 1040 1096 q 978 994 1040 1078 q 898 888 937 941 q 475 194 632 525 q 423 73 450 134 q 327 4 385 4 q 267 22 296 4 q 232 72 232 45 q 438 453 232 80 l 247 704 q 50 970 178 791 q 27 1036 27 1005 q 54 1109 27 1065 q 109 1153 80 1153 q 138 1133 122 1153 q 201 1032 144 1124 q 514 586 339 806 q 745 977 544 639 q 844 1137 774 1032 q 925 1176 875 1176 q 998 1156 963 1176 q 1040 1096 1040 1131 z "},"z":{"ha":1069,"x_min":50,"x_max":1044,"o":"m 1044 174 q 1017 118 1044 144 q 959 80 989 92 q 397 18 779 18 q 191 24 239 18 q 50 132 50 47 q 64 180 50 153 q 109 243 77 206 q 160 302 133 273 q 692 970 335 526 q 624 971 656 971 q 220 925 425 971 q 193 922 205 922 q 127 950 152 922 q 103 1020 103 978 q 111 1059 103 1039 q 315 1145 133 1115 q 553 1162 438 1162 q 791 1141 685 1162 q 966 1023 966 1105 q 939 959 966 994 q 875 890 917 929 q 807 827 814 834 q 277 183 502 519 q 420 178 345 178 q 929 214 553 178 q 974 217 959 217 q 1044 174 1044 217 z "},"{":{"ha":1234,"x_min":34,"x_max":1058,"o":"m 1040 981 q 1004 907 1040 949 q 939 865 968 865 q 849 932 932 865 q 749 1012 754 1008 q 556 1101 696 1048 q 471 1135 524 1111 q 457 1161 457 1145 q 492 1229 457 1194 q 560 1264 528 1264 q 798 1145 586 1264 q 1034 997 1004 1027 q 1040 981 1040 990 m 899 635 q 879 560 899 591 q 817 524 857 524 q 728 534 815 524 q 509 553 589 553 q 216 528 411 553 q 77 513 96 513 q 34 567 34 513 q 60 642 34 612 q 129 678 85 673 q 315 686 157 681 q 704 694 541 694 q 867 688 846 694 q 899 635 899 677 m 1058 228 q 1046 199 1058 212 q 989 174 1021 189 q 731 -4 833 100 q 609 -117 620 -117 q 556 -75 581 -117 q 534 -7 534 -38 q 555 41 534 19 q 770 212 586 73 q 981 351 962 351 q 1034 301 1006 351 q 1058 228 1058 256 z "},"|":{"ha":422,"x_min":115,"x_max":308,"o":"m 308 -47 q 271 -109 308 -81 q 195 -137 233 -137 q 146 -99 156 -137 q 137 -19 137 -68 q 138 61 137 20 l 137 85 q 125 610 136 220 q 115 1134 115 937 q 251 1301 115 1301 q 307 1251 307 1301 q 300 1127 307 1203 q 288 1006 289 1025 q 273 586 273 792 q 289 137 273 309 q 301 46 290 127 q 308 -47 308 -11 z "},"}":{"ha":1343,"x_min":218,"x_max":1242,"o":"m 741 1152 q 720 1105 741 1126 q 506 933 690 1072 q 293 793 315 793 q 240 842 267 793 q 218 916 218 884 q 229 945 218 933 q 427 1050 313 987 q 557 1166 448 1062 q 667 1264 658 1264 q 718 1219 694 1264 q 741 1152 741 1180 m 1242 578 q 1147 468 1242 483 q 951 457 1116 464 q 591 450 754 450 q 411 458 431 450 q 374 510 374 469 q 393 582 374 551 q 452 623 415 623 q 545 612 464 623 q 765 591 690 591 q 1058 616 875 591 q 1198 632 1188 632 q 1242 578 1242 632 m 818 -11 q 783 -81 818 -45 q 713 -118 749 -118 q 479 0 686 -118 q 241 149 273 118 q 233 167 233 157 q 270 238 233 195 q 336 281 307 281 q 426 214 346 281 q 525 133 521 136 q 730 39 586 91 q 783 20 755 31 q 818 -11 818 5 z "},"~":{"ha":891,"x_min":68,"x_max":825,"o":"m 825 658 q 751 545 825 598 q 614 491 677 491 q 446 543 557 491 q 286 595 334 595 q 189 545 243 595 q 119 494 134 494 q 80 540 96 494 q 68 610 68 578 q 123 712 68 665 q 235 755 176 755 q 404 705 289 755 q 582 654 518 654 q 684 699 629 654 q 766 777 726 739 q 810 730 791 777 q 825 658 825 688 z "},"¨":{"ha":575,"x_min":0,"x_max":0,"o":""},"©":{"ha":1370,"x_min":75,"x_max":1293,"o":"m 1293 692 q 1192 344 1293 517 q 935 64 1092 171 q 590 -50 766 -50 q 224 101 373 -50 q 75 469 75 252 q 174 818 75 644 q 430 1100 274 991 q 774 1214 598 1214 q 1141 1061 990 1214 q 1293 692 1293 909 m 1109 601 q 1010 911 1109 774 q 735 1061 903 1061 q 509 993 625 1061 q 247 543 247 841 q 345 233 247 369 q 620 83 452 83 q 848 153 730 83 q 1109 601 1109 308 m 968 491 q 804 326 947 396 q 568 263 678 263 q 427 302 481 263 q 366 431 366 349 q 499 732 366 545 q 749 888 610 888 q 875 834 817 888 q 959 719 959 758 q 929 679 959 696 q 872 662 899 662 q 810 700 856 662 q 727 738 765 738 q 588 664 665 738 q 511 529 511 590 q 567 423 511 460 q 688 393 614 393 q 832 450 751 393 q 947 507 913 507 q 968 491 966 507 z "},"®":{"ha":1375,"x_min":80,"x_max":1298,"o":"m 1298 692 q 1196 339 1298 515 q 935 61 1096 168 q 587 -53 765 -53 q 229 102 378 -53 q 80 469 80 258 q 180 818 80 644 q 437 1100 279 991 q 780 1214 604 1214 q 1147 1061 997 1214 q 1298 692 1298 909 m 1115 602 q 1016 913 1115 779 q 735 1058 906 1058 q 392 898 536 1058 q 252 541 252 742 q 351 233 252 369 q 627 83 460 83 q 853 153 736 83 q 1115 602 1115 308 m 966 694 q 869 515 966 582 q 671 435 804 469 l 875 327 q 921 277 921 301 q 887 262 921 262 q 845 270 867 262 l 534 384 q 553 258 553 277 q 532 230 553 240 q 490 220 510 220 q 456 237 464 220 q 438 680 438 277 q 389 635 407 635 q 359 656 373 635 q 346 696 346 678 q 399 777 346 720 q 670 918 528 918 q 868 865 785 918 q 966 694 966 804 m 868 680 q 804 783 868 742 q 681 818 747 818 q 526 762 605 818 q 522 624 522 693 q 525 513 522 568 l 541 503 q 868 680 868 517 z "},"À":{"ha":1076,"x_min":16,"x_max":1082,"o":"m 1082 137 q 1044 72 1082 103 q 971 41 1006 41 q 898 115 935 41 q 853 224 875 170 q 210 91 595 161 q 125 -23 163 -23 q 51 22 85 -23 q 16 109 16 68 q 53 187 16 130 q 104 267 77 228 q 297 680 201 433 q 456 1105 377 891 q 472 1138 463 1123 q 294 1256 410 1173 q 267 1335 256 1284 q 296 1392 273 1367 q 350 1416 321 1423 q 513 1299 369 1412 q 680 1164 648 1195 q 705 1103 711 1133 q 661 1040 696 1055 q 996 296 780 658 q 1046 217 1021 255 q 1082 137 1082 156 m 777 399 q 552 930 704 576 q 290 275 494 798 q 777 399 559 317 z "},"Á":{"ha":1076,"x_min":16,"x_max":1082,"o":"m 1082 137 q 1044 72 1082 103 q 971 41 1006 41 q 898 115 935 41 q 853 224 875 170 q 210 91 595 161 q 125 -23 163 -23 q 51 22 85 -23 q 16 109 16 68 q 53 187 16 130 q 104 267 77 228 q 290 659 198 427 q 442 1067 365 864 l 441 1074 q 465 1134 433 1103 q 478 1147 469 1138 q 500 1164 487 1156 q 796 1388 758 1379 q 850 1363 823 1393 q 879 1306 872 1336 q 852 1225 888 1256 q 644 1089 821 1200 q 688 959 658 1044 q 996 296 831 574 q 1046 217 1021 255 q 1082 137 1082 156 m 777 399 q 552 930 704 576 q 290 275 494 798 q 777 399 559 317 z "},"Â":{"ha":1076,"x_min":16,"x_max":1082,"o":"m 795 1147 q 780 1112 795 1131 q 745 1090 764 1090 q 700 1127 724 1090 q 537 1333 629 1245 q 404 1135 525 1314 q 349 1095 377 1095 q 314 1107 335 1095 q 293 1137 293 1119 q 316 1177 293 1150 q 475 1412 433 1316 q 524 1458 495 1458 q 557 1449 537 1458 q 583 1424 576 1439 q 749 1221 618 1385 q 795 1147 795 1165 m 1082 137 q 1044 72 1082 103 q 971 41 1006 41 q 898 115 935 41 q 853 224 875 170 q 210 91 595 161 q 125 -23 163 -23 q 51 22 85 -23 q 16 109 16 68 q 53 187 16 130 q 104 267 77 228 q 297 680 201 433 q 456 1105 377 891 q 563 1177 483 1177 q 621 1141 600 1177 q 656 1051 639 1108 q 688 959 686 964 q 996 296 831 574 q 1046 217 1021 255 q 1082 137 1082 156 m 777 399 q 552 930 704 576 q 290 275 494 798 q 777 399 559 317 z "},"Ã":{"ha":1076,"x_min":16,"x_max":1082,"o":"m 1082 137 q 1044 72 1082 103 q 971 41 1006 41 q 898 115 935 41 q 853 224 875 170 q 210 91 595 161 q 125 -23 163 -23 q 51 22 85 -23 q 16 109 16 68 q 53 187 16 130 q 104 267 77 228 q 297 680 201 433 q 456 1105 377 891 q 559 1177 483 1176 q 452 1215 479 1215 q 391 1183 425 1215 q 350 1152 358 1152 q 326 1180 335 1152 q 317 1223 317 1204 q 351 1285 317 1257 q 419 1313 384 1313 q 522 1282 453 1313 q 632 1251 591 1251 q 693 1278 659 1251 q 745 1325 718 1301 q 768 1298 758 1325 q 779 1253 779 1271 q 734 1184 779 1217 q 650 1152 689 1152 q 609 1158 632 1152 q 654 1062 629 1134 q 688 959 671 1010 q 996 296 831 574 q 1046 217 1021 255 q 1082 137 1082 156 m 777 399 q 552 930 704 576 q 290 275 494 798 q 777 399 559 317 z "},"Ä":{"ha":1076,"x_min":16,"x_max":1082,"o":"m 826 1324 q 812 1244 826 1309 q 792 1165 799 1180 q 732 1138 779 1138 q 682 1172 682 1138 q 692 1317 682 1265 q 765 1347 696 1347 q 826 1324 826 1347 m 461 1333 q 447 1255 461 1318 q 426 1175 433 1191 q 366 1147 414 1147 q 316 1181 316 1147 q 327 1326 316 1275 q 400 1356 331 1356 q 461 1333 461 1356 m 1082 137 q 1044 72 1082 103 q 971 41 1006 41 q 898 115 935 41 q 853 224 875 170 q 210 91 595 161 q 125 -23 163 -23 q 51 22 85 -23 q 16 109 16 68 q 53 187 16 130 q 104 267 77 228 q 297 680 201 433 q 456 1105 377 891 q 563 1177 483 1177 q 621 1141 600 1177 q 656 1051 639 1108 q 688 959 686 964 q 996 296 831 574 q 1046 217 1021 255 q 1082 137 1082 156 m 777 399 q 552 930 704 576 q 290 275 494 798 q 777 399 559 317 z "},"Å":{"ha":1076,"x_min":16,"x_max":1082,"o":"m 1082 137 q 1044 72 1082 103 q 971 41 1006 41 q 898 115 935 41 q 853 224 875 170 q 210 91 595 161 q 125 -23 163 -23 q 51 22 85 -23 q 16 109 16 68 q 53 187 16 130 q 104 267 77 228 q 297 680 201 433 q 456 1105 377 891 q 481 1149 467 1134 q 425 1242 425 1179 q 465 1333 425 1295 q 557 1370 506 1370 q 635 1339 602 1370 q 667 1263 667 1309 q 609 1158 667 1198 q 652 1063 629 1135 q 688 959 671 1010 q 996 296 831 574 q 1046 217 1021 255 q 1082 137 1082 156 m 610 1252 q 591 1302 610 1280 q 544 1324 572 1324 q 498 1301 517 1324 q 479 1252 479 1279 q 498 1200 479 1222 q 545 1179 518 1179 q 591 1200 572 1179 q 610 1252 610 1222 m 777 399 q 552 930 704 576 q 290 275 494 798 q 777 399 559 317 z "},"È":{"ha":1044,"x_min":42,"x_max":1015,"o":"m 1015 686 q 922 639 1015 650 q 236 509 472 587 q 267 175 241 336 q 560 208 395 175 q 850 271 705 239 q 891 277 875 277 q 947 229 947 277 q 926 165 947 198 q 878 117 905 132 q 567 15 764 52 q 236 -14 399 -14 q 126 31 153 -14 q 99 476 110 60 q 42 563 42 496 q 94 644 42 624 l 95 644 q 85 936 85 783 q 88 1006 85 1002 q 121 1066 94 1046 q 190 1095 134 1078 q 334 1141 237 1109 q 164 1255 275 1175 q 136 1333 126 1283 q 165 1390 141 1366 q 220 1415 190 1421 q 358 1317 236 1412 q 532 1177 468 1232 q 547 1177 538 1177 l 604 1177 q 707 1172 678 1179 q 793 1120 757 1161 q 829 1046 829 1080 q 746 993 829 1000 q 487 966 541 975 q 239 886 380 945 q 232 688 232 792 q 814 783 555 783 q 892 777 864 783 q 968 747 928 773 q 1015 686 1015 716 z "},"É":{"ha":1044,"x_min":42,"x_max":1015,"o":"m 1015 686 q 922 639 1015 650 q 236 509 472 587 q 267 175 241 336 q 560 208 395 175 q 850 271 705 239 q 891 277 875 277 q 947 229 947 277 q 926 165 947 198 q 878 117 905 132 q 567 15 764 52 q 236 -14 399 -14 q 126 31 153 -14 q 99 476 110 60 q 42 563 42 496 q 94 644 42 624 l 95 644 q 85 936 85 783 q 88 1006 85 1002 q 121 1066 94 1046 q 190 1095 134 1078 q 286 1124 222 1104 l 289 1130 q 457 1267 320 1160 q 620 1382 600 1379 q 674 1358 647 1388 q 703 1301 696 1332 q 675 1221 712 1252 q 618 1177 650 1200 q 712 1171 682 1179 q 793 1120 758 1158 q 829 1046 829 1080 q 746 993 829 1000 q 487 966 541 975 q 239 886 380 945 q 232 688 232 792 q 814 783 555 783 q 892 777 864 783 q 968 747 928 773 q 1015 686 1015 716 z "},"Ê":{"ha":1044,"x_min":42,"x_max":1015,"o":"m 1015 686 q 922 639 1015 650 q 236 509 472 587 q 267 175 241 336 q 560 208 395 175 q 850 271 705 239 q 891 277 875 277 q 947 229 947 277 q 926 165 947 198 q 878 117 905 132 q 567 15 764 52 q 236 -14 399 -14 q 126 31 153 -14 q 99 476 110 60 q 42 563 42 496 q 94 644 42 624 l 95 644 q 85 936 85 783 q 88 1006 85 1002 q 121 1066 94 1046 q 190 1095 134 1078 q 222 1104 205 1099 q 213 1126 213 1115 q 236 1168 213 1141 q 395 1401 354 1306 q 445 1449 414 1449 q 477 1438 457 1449 q 503 1413 498 1428 q 669 1211 537 1374 q 699 1173 680 1199 q 791 1122 754 1164 q 829 1046 829 1080 q 746 993 829 1000 q 487 966 541 975 q 239 886 380 945 q 232 688 232 792 q 814 783 555 783 q 892 777 864 783 q 968 747 928 773 q 1015 686 1015 716 m 581 1177 q 458 1322 524 1259 q 335 1141 435 1287 q 547 1177 457 1177 l 581 1177 z "},"Ë":{"ha":1044,"x_min":42,"x_max":1015,"o":"m 750 1392 q 736 1313 750 1377 q 715 1233 722 1249 q 655 1206 703 1206 q 605 1240 605 1206 q 616 1385 605 1333 q 689 1415 620 1415 q 750 1392 750 1415 m 385 1401 q 371 1322 385 1386 q 350 1242 357 1259 q 290 1215 338 1215 q 240 1251 240 1215 q 250 1394 240 1343 q 324 1426 254 1426 q 385 1401 385 1426 m 1015 686 q 922 639 1015 650 q 236 509 472 587 q 267 175 241 336 q 560 208 395 175 q 850 271 705 239 q 891 277 875 277 q 947 229 947 277 q 926 165 947 198 q 878 117 905 132 q 567 15 764 52 q 236 -14 399 -14 q 126 31 153 -14 q 99 476 110 60 q 42 563 42 496 q 94 644 42 624 l 95 644 q 85 936 85 783 q 88 1006 85 1002 q 121 1066 94 1046 q 190 1095 134 1078 q 365 1150 278 1122 q 547 1177 467 1177 l 604 1177 q 707 1172 678 1179 q 793 1120 757 1161 q 829 1046 829 1080 q 746 993 829 1000 q 487 966 541 975 q 239 886 380 945 q 232 688 232 792 q 814 783 555 783 q 892 777 864 783 q 968 747 928 773 q 1015 686 1015 716 z "},"Ì":{"ha":845,"x_min":66,"x_max":788,"o":"m 788 1054 q 783 1029 788 1038 q 704 1002 768 1006 q 463 983 567 993 q 450 678 450 826 q 487 186 450 420 q 614 222 496 187 q 743 244 693 244 q 784 212 784 244 q 764 153 784 186 q 720 107 743 121 q 469 24 639 57 q 203 -4 321 -4 q 110 11 138 -4 q 69 91 69 33 q 161 163 69 163 q 202 161 175 163 q 240 159 229 159 q 334 163 293 159 q 309 941 315 422 q 136 875 159 875 q 81 918 102 875 q 66 990 66 951 q 117 1092 66 1062 q 258 1150 179 1127 q 161 1214 174 1203 q 117 1310 107 1260 q 146 1367 122 1341 q 199 1392 171 1397 q 473 1185 232 1386 q 541 1190 509 1190 q 682 1175 636 1190 q 783 1086 757 1153 q 788 1054 788 1072 z "},"Í":{"ha":845,"x_min":66,"x_max":788,"o":"m 788 1054 q 783 1029 788 1038 q 704 1002 768 1006 q 463 983 567 993 q 450 678 450 826 q 487 186 450 420 q 614 222 496 187 q 743 244 693 244 q 784 212 784 244 q 764 153 784 186 q 720 107 743 121 q 469 24 639 57 q 203 -4 321 -4 q 110 11 138 -4 q 69 91 69 33 q 161 163 69 163 q 202 161 175 163 q 240 159 229 159 q 334 163 293 159 q 309 941 315 422 q 136 875 159 875 q 81 918 102 875 q 66 990 66 951 q 116 1090 66 1062 q 224 1139 165 1119 q 248 1177 228 1157 q 416 1316 281 1208 q 579 1431 560 1428 q 633 1407 606 1436 q 662 1350 655 1381 q 617 1253 673 1298 q 518 1190 604 1241 q 541 1190 530 1190 q 682 1175 636 1190 q 783 1086 757 1153 q 788 1054 788 1072 z "},"Î":{"ha":845,"x_min":66,"x_max":788,"o":"m 788 1054 q 783 1029 788 1038 q 704 1002 768 1006 q 463 983 567 993 q 450 678 450 826 q 487 186 450 420 q 614 222 496 187 q 743 244 693 244 q 784 212 784 244 q 764 153 784 186 q 720 107 743 121 q 469 24 639 57 q 203 -4 321 -4 q 110 11 138 -4 q 69 91 69 33 q 161 163 69 163 q 202 161 175 163 q 240 159 229 159 q 334 163 293 159 q 309 941 315 422 q 136 875 159 875 q 81 918 102 875 q 66 990 66 951 q 117 1092 66 1062 q 168 1118 141 1105 q 167 1127 167 1122 q 190 1169 167 1142 q 349 1404 307 1308 q 397 1450 368 1450 q 431 1440 411 1450 q 457 1415 450 1431 q 623 1213 491 1377 q 647 1183 631 1203 q 783 1086 751 1165 q 788 1054 788 1072 m 528 1190 q 411 1324 473 1264 q 301 1161 384 1280 q 528 1190 410 1188 z "},"Ï":{"ha":845,"x_min":66,"x_max":788,"o":"m 663 1408 q 650 1328 663 1392 q 629 1251 636 1264 q 571 1222 617 1222 q 519 1256 519 1222 q 529 1401 519 1348 q 602 1432 534 1432 q 663 1408 663 1432 m 298 1419 q 285 1337 298 1401 q 264 1260 271 1274 q 206 1232 251 1232 q 155 1265 155 1232 q 164 1411 155 1358 q 237 1442 170 1442 q 298 1419 298 1442 m 788 1054 q 783 1029 788 1038 q 704 1002 768 1006 q 463 983 567 993 q 450 678 450 826 q 487 186 450 420 q 614 222 496 187 q 743 244 693 244 q 784 212 784 244 q 764 153 784 186 q 720 107 743 121 q 469 24 639 57 q 203 -4 321 -4 q 110 11 138 -4 q 69 91 69 33 q 161 163 69 163 q 202 161 175 163 q 240 159 229 159 q 334 163 293 159 q 309 941 315 422 q 136 875 159 875 q 81 918 102 875 q 66 990 66 951 q 117 1092 66 1062 q 541 1190 288 1190 q 682 1175 636 1190 q 783 1086 757 1153 q 788 1054 788 1072 z "},"Ñ":{"ha":1131,"x_min":73,"x_max":1066,"o":"m 806 1196 q 760 1127 806 1160 q 677 1095 715 1095 q 574 1126 643 1095 q 477 1158 506 1158 q 418 1126 452 1158 q 377 1095 385 1095 q 351 1123 361 1095 q 345 1166 345 1147 q 377 1228 345 1200 q 446 1256 410 1256 q 549 1225 479 1256 q 658 1194 618 1194 q 719 1221 686 1194 q 770 1268 745 1245 q 795 1241 785 1268 q 806 1196 806 1214 m 1066 1138 q 1054 1059 1066 1126 q 1000 445 1000 773 q 1006 236 1000 321 q 1015 180 1008 221 q 1020 125 1020 146 q 902 37 1020 37 q 854 65 852 37 l 240 760 q 232 509 232 628 q 251 152 232 293 q 262 98 252 144 q 269 42 269 64 q 228 -12 269 9 q 159 -33 193 -33 q 104 0 115 -33 q 85 420 98 16 q 73 868 73 795 q 84 1017 73 990 q 210 1081 109 1081 q 262 1062 245 1081 l 860 366 q 876 735 861 412 q 883 922 880 827 q 901 1108 888 1032 q 1019 1191 911 1191 q 1066 1138 1066 1191 z "},"Ò":{"ha":1373,"x_min":61,"x_max":1318,"o":"m 1318 648 q 1105 180 1318 380 q 625 -12 895 -12 q 225 146 389 -12 q 61 540 61 305 q 208 937 61 758 q 562 1172 349 1108 q 392 1286 503 1207 q 363 1366 354 1316 q 393 1423 369 1397 q 448 1447 418 1453 q 597 1340 465 1444 q 769 1200 719 1246 q 1159 1037 1000 1195 q 1318 648 1318 879 m 1114 585 q 991 911 1114 772 q 680 1055 864 1055 q 372 909 499 1055 q 252 585 252 768 q 377 259 252 399 q 688 117 503 117 q 993 263 868 117 q 1114 585 1114 401 z "},"Ó":{"ha":1373,"x_min":61,"x_max":1318,"o":"m 1318 648 q 1105 180 1318 380 q 625 -12 895 -12 q 225 146 389 -12 q 61 540 61 305 q 203 930 61 754 q 545 1168 339 1100 q 571 1207 551 1185 q 739 1344 602 1237 q 902 1459 882 1457 q 956 1436 929 1465 q 985 1379 978 1409 q 958 1298 994 1329 q 808 1199 910 1260 q 1171 1025 1025 1177 q 1318 648 1318 868 m 1114 585 q 991 911 1114 772 q 680 1055 864 1055 q 372 909 499 1055 q 252 585 252 768 q 377 259 252 399 q 688 117 503 117 q 993 263 868 117 q 1114 585 1114 401 z "},"Ô":{"ha":1373,"x_min":61,"x_max":1318,"o":"m 1318 648 q 1105 180 1318 380 q 625 -12 895 -12 q 225 146 389 -12 q 61 540 61 305 q 163 876 61 719 q 419 1112 259 1025 q 419 1119 419 1116 q 444 1161 419 1134 q 601 1396 560 1298 q 650 1442 621 1442 q 683 1432 663 1442 q 709 1407 703 1423 q 875 1204 745 1369 q 892 1184 880 1199 q 1199 994 1080 1141 q 1318 648 1318 846 m 765 1200 q 663 1317 718 1264 q 568 1175 633 1270 q 753 1202 663 1202 l 765 1200 m 1114 585 q 991 911 1114 772 q 680 1055 864 1055 q 372 909 499 1055 q 252 585 252 768 q 377 259 252 399 q 688 117 503 117 q 993 263 868 117 q 1114 585 1114 401 z "},"Õ":{"ha":1373,"x_min":61,"x_max":1318,"o":"m 1318 648 q 1105 180 1318 380 q 625 -12 895 -12 q 225 146 389 -12 q 61 540 61 305 q 263 996 61 802 q 720 1200 458 1188 q 604 1241 629 1241 q 545 1209 578 1241 q 503 1177 511 1177 q 477 1207 487 1177 q 471 1251 471 1230 q 503 1311 471 1283 q 572 1339 536 1339 q 675 1308 605 1339 q 785 1276 745 1276 q 846 1305 812 1276 q 898 1351 871 1328 q 922 1324 911 1351 q 932 1279 932 1297 q 857 1192 932 1229 q 1185 1008 1057 1157 q 1318 648 1318 856 m 1114 585 q 991 911 1114 772 q 680 1055 864 1055 q 372 909 499 1055 q 252 585 252 768 q 377 259 252 399 q 688 117 503 117 q 993 263 868 117 q 1114 585 1114 401 z "},"Ö":{"ha":1373,"x_min":61,"x_max":1318,"o":"m 985 1413 q 971 1335 985 1398 q 949 1256 958 1271 q 890 1227 937 1227 q 841 1263 841 1227 q 850 1407 841 1355 q 924 1438 854 1438 q 985 1413 985 1438 m 620 1424 q 606 1344 620 1408 q 585 1265 591 1280 q 525 1237 572 1237 q 475 1272 475 1237 q 484 1416 475 1366 q 559 1447 488 1447 q 620 1424 620 1447 m 1318 648 q 1105 180 1318 380 q 625 -12 895 -12 q 225 146 389 -12 q 61 540 61 305 q 274 1006 61 810 q 753 1202 481 1202 q 1154 1042 989 1202 q 1318 648 1318 883 m 1114 585 q 991 911 1114 772 q 680 1055 864 1055 q 372 909 499 1055 q 252 585 252 768 q 377 259 252 399 q 688 117 503 117 q 993 263 868 117 q 1114 585 1114 401 z "},"Ù":{"ha":1077,"x_min":90,"x_max":983,"o":"m 724 1065 q 699 1019 718 1038 q 651 1000 678 994 q 593 1032 628 1004 q 452 1122 553 1061 q 312 1217 358 1179 q 285 1297 275 1248 q 313 1354 290 1329 q 368 1379 339 1385 q 530 1263 387 1375 q 699 1125 667 1156 q 724 1065 730 1095 m 983 104 q 947 50 983 71 q 873 30 910 30 q 819 60 831 30 q 811 241 815 69 q 503 107 694 175 q 187 33 290 33 q 114 113 114 33 q 115 146 114 122 q 115 180 117 168 l 115 197 q 100 570 114 301 q 90 941 90 806 q 106 1085 90 1048 q 228 1143 133 1143 q 283 1104 283 1143 q 267 959 283 1109 q 248 490 248 793 q 271 241 248 262 q 297 235 279 235 q 551 311 361 235 q 803 425 700 372 q 788 947 788 742 q 804 1082 788 1044 q 918 1145 831 1145 q 982 1104 982 1145 q 975 1009 982 1066 q 963 916 964 925 q 947 548 947 755 q 967 248 947 403 q 983 104 983 117 z "},"Ú":{"ha":1077,"x_min":90,"x_max":983,"o":"m 841 1303 q 812 1222 850 1253 q 674 1127 766 1184 q 532 1036 572 1065 q 473 1005 498 1009 q 427 1021 448 1000 q 401 1069 407 1043 q 427 1131 396 1100 q 594 1268 458 1161 q 757 1383 738 1381 q 811 1359 785 1389 q 841 1303 833 1333 m 983 104 q 947 50 983 71 q 873 30 910 30 q 819 60 831 30 q 811 241 815 69 q 503 107 694 175 q 187 33 290 33 q 114 113 114 33 q 115 146 114 122 q 115 180 117 168 l 115 197 q 100 570 114 301 q 90 941 90 806 q 106 1085 90 1048 q 228 1143 133 1143 q 283 1104 283 1143 q 267 959 283 1109 q 248 490 248 793 q 271 241 248 262 q 297 235 279 235 q 551 311 361 235 q 803 425 700 372 q 788 947 788 742 q 804 1082 788 1044 q 918 1145 831 1145 q 982 1104 982 1145 q 975 1009 982 1066 q 963 916 964 925 q 947 548 947 755 q 967 248 947 403 q 983 104 983 117 z "},"Û":{"ha":1077,"x_min":90,"x_max":983,"o":"m 819 1166 q 805 1131 819 1152 q 769 1109 791 1109 q 726 1149 749 1109 q 564 1352 654 1265 q 429 1156 551 1333 q 374 1114 401 1114 q 338 1126 359 1114 q 317 1157 317 1139 q 342 1199 317 1171 q 500 1432 460 1336 q 551 1480 519 1480 q 583 1469 563 1480 q 609 1444 602 1458 q 773 1241 643 1404 q 819 1166 819 1184 m 983 104 q 947 50 983 71 q 873 30 910 30 q 819 60 831 30 q 811 241 815 69 q 503 107 694 175 q 187 33 290 33 q 114 113 114 33 q 115 146 114 122 q 115 180 117 168 l 115 197 q 100 570 114 301 q 90 941 90 806 q 106 1085 90 1048 q 228 1143 133 1143 q 283 1104 283 1143 q 267 959 283 1109 q 248 490 248 793 q 271 241 248 262 q 297 235 279 235 q 551 311 361 235 q 803 425 700 372 q 788 947 788 742 q 804 1082 788 1044 q 918 1145 831 1145 q 982 1104 982 1145 q 975 1009 982 1066 q 963 916 964 925 q 947 548 947 755 q 967 248 947 403 q 983 104 983 117 z "},"Ü":{"ha":1077,"x_min":90,"x_max":983,"o":"m 826 1324 q 812 1244 826 1309 q 792 1165 799 1180 q 732 1138 779 1138 q 682 1172 682 1138 q 692 1317 682 1265 q 765 1347 696 1347 q 826 1324 826 1347 m 503 1333 q 489 1255 503 1318 q 468 1175 475 1191 q 408 1147 456 1147 q 358 1181 358 1147 q 368 1326 358 1275 q 442 1356 372 1356 q 503 1333 503 1356 m 983 104 q 947 50 983 71 q 873 30 910 30 q 819 60 831 30 q 811 241 815 69 q 503 107 694 175 q 187 33 290 33 q 114 113 114 33 q 115 146 114 122 q 115 180 117 168 l 115 197 q 100 570 114 301 q 90 941 90 806 q 106 1085 90 1048 q 228 1143 133 1143 q 283 1104 283 1143 q 267 959 283 1109 q 248 490 248 793 q 271 241 248 262 q 297 235 279 235 q 551 311 361 235 q 803 425 700 372 q 788 947 788 742 q 804 1082 788 1044 q 918 1145 831 1145 q 982 1104 982 1145 q 975 1009 982 1066 q 963 916 964 925 q 947 548 947 755 q 967 248 947 403 q 983 104 983 117 z "},"Ý":{"ha":1019,"x_min":27,"x_max":1040,"o":"m 787 1309 q 758 1227 796 1259 q 620 1134 712 1191 q 477 1042 518 1072 q 419 1010 444 1016 q 373 1027 393 1005 q 347 1076 353 1048 q 373 1136 342 1105 q 540 1274 404 1166 q 703 1389 684 1386 q 757 1366 731 1394 q 787 1309 779 1339 m 1040 1096 q 978 994 1040 1078 q 898 888 937 941 q 475 194 632 525 q 423 73 450 134 q 327 4 385 4 q 267 22 296 4 q 232 72 232 45 q 438 453 232 80 l 247 704 q 50 970 178 791 q 27 1036 27 1005 q 54 1109 27 1065 q 109 1153 80 1153 q 138 1133 122 1153 q 201 1032 144 1124 q 514 586 339 806 q 745 977 544 639 q 844 1137 774 1032 q 925 1176 875 1176 q 998 1156 963 1176 q 1040 1096 1040 1131 z "},"à":{"ha":1076,"x_min":16,"x_max":1082,"o":"m 1082 137 q 1044 72 1082 103 q 971 41 1006 41 q 898 115 935 41 q 853 224 875 170 q 210 91 595 161 q 125 -23 163 -23 q 51 22 85 -23 q 16 109 16 68 q 53 187 16 130 q 104 267 77 228 q 297 680 201 433 q 456 1105 377 891 q 472 1138 463 1123 q 294 1256 410 1173 q 267 1335 256 1284 q 296 1392 273 1367 q 350 1416 321 1423 q 513 1299 369 1412 q 680 1164 648 1195 q 705 1103 711 1133 q 661 1040 696 1055 q 996 296 780 658 q 1046 217 1021 255 q 1082 137 1082 156 m 777 399 q 552 930 704 576 q 290 275 494 798 q 777 399 559 317 z "},"á":{"ha":1076,"x_min":16,"x_max":1082,"o":"m 1082 137 q 1044 72 1082 103 q 971 41 1006 41 q 898 115 935 41 q 853 224 875 170 q 210 91 595 161 q 125 -23 163 -23 q 51 22 85 -23 q 16 109 16 68 q 53 187 16 130 q 104 267 77 228 q 290 659 198 427 q 442 1067 365 864 l 441 1074 q 465 1134 433 1103 q 478 1147 469 1138 q 500 1164 487 1156 q 796 1388 758 1379 q 850 1363 823 1393 q 879 1306 872 1336 q 852 1225 888 1256 q 644 1089 821 1200 q 688 959 658 1044 q 996 296 831 574 q 1046 217 1021 255 q 1082 137 1082 156 m 777 399 q 552 930 704 576 q 290 275 494 798 q 777 399 559 317 z "},"â":{"ha":1076,"x_min":16,"x_max":1082,"o":"m 795 1147 q 780 1112 795 1131 q 745 1090 764 1090 q 700 1127 724 1090 q 537 1333 629 1245 q 404 1135 525 1314 q 349 1095 377 1095 q 314 1107 335 1095 q 293 1137 293 1119 q 316 1177 293 1150 q 475 1412 433 1316 q 524 1458 495 1458 q 557 1449 537 1458 q 583 1424 576 1439 q 749 1221 618 1385 q 795 1147 795 1165 m 1082 137 q 1044 72 1082 103 q 971 41 1006 41 q 898 115 935 41 q 853 224 875 170 q 210 91 595 161 q 125 -23 163 -23 q 51 22 85 -23 q 16 109 16 68 q 53 187 16 130 q 104 267 77 228 q 297 680 201 433 q 456 1105 377 891 q 563 1177 483 1177 q 621 1141 600 1177 q 656 1051 639 1108 q 688 959 686 964 q 996 296 831 574 q 1046 217 1021 255 q 1082 137 1082 156 m 777 399 q 552 930 704 576 q 290 275 494 798 q 777 399 559 317 z "},"ã":{"ha":1076,"x_min":16,"x_max":1082,"o":"m 1082 137 q 1044 72 1082 103 q 971 41 1006 41 q 898 115 935 41 q 853 224 875 170 q 210 91 595 161 q 125 -23 163 -23 q 51 22 85 -23 q 16 109 16 68 q 53 187 16 130 q 104 267 77 228 q 297 680 201 433 q 456 1105 377 891 q 559 1177 483 1176 q 452 1215 479 1215 q 391 1183 425 1215 q 350 1152 358 1152 q 326 1180 335 1152 q 317 1223 317 1204 q 351 1285 317 1257 q 419 1313 384 1313 q 522 1282 453 1313 q 632 1251 591 1251 q 693 1278 659 1251 q 745 1325 718 1301 q 768 1298 758 1325 q 779 1253 779 1271 q 734 1184 779 1217 q 650 1152 689 1152 q 609 1158 632 1152 q 654 1062 629 1134 q 688 959 671 1010 q 996 296 831 574 q 1046 217 1021 255 q 1082 137 1082 156 m 777 399 q 552 930 704 576 q 290 275 494 798 q 777 399 559 317 z "},"ä":{"ha":1076,"x_min":16,"x_max":1082,"o":"m 826 1324 q 812 1244 826 1309 q 792 1165 799 1180 q 732 1138 779 1138 q 682 1172 682 1138 q 692 1317 682 1265 q 765 1347 696 1347 q 826 1324 826 1347 m 461 1333 q 447 1255 461 1318 q 426 1175 433 1191 q 366 1147 414 1147 q 316 1181 316 1147 q 327 1326 316 1275 q 400 1356 331 1356 q 461 1333 461 1356 m 1082 137 q 1044 72 1082 103 q 971 41 1006 41 q 898 115 935 41 q 853 224 875 170 q 210 91 595 161 q 125 -23 163 -23 q 51 22 85 -23 q 16 109 16 68 q 53 187 16 130 q 104 267 77 228 q 297 680 201 433 q 456 1105 377 891 q 563 1177 483 1177 q 621 1141 600 1177 q 656 1051 639 1108 q 688 959 686 964 q 996 296 831 574 q 1046 217 1021 255 q 1082 137 1082 156 m 777 399 q 552 930 704 576 q 290 275 494 798 q 777 399 559 317 z "},"å":{"ha":1076,"x_min":16,"x_max":1082,"o":"m 1082 137 q 1044 72 1082 103 q 971 41 1006 41 q 898 115 935 41 q 853 224 875 170 q 210 91 595 161 q 125 -23 163 -23 q 51 22 85 -23 q 16 109 16 68 q 53 187 16 130 q 104 267 77 228 q 297 680 201 433 q 456 1105 377 891 q 481 1149 467 1134 q 425 1242 425 1179 q 465 1333 425 1295 q 557 1370 506 1370 q 635 1339 602 1370 q 667 1263 667 1309 q 609 1158 667 1198 q 652 1063 629 1135 q 688 959 671 1010 q 996 296 831 574 q 1046 217 1021 255 q 1082 137 1082 156 m 610 1252 q 591 1302 610 1280 q 544 1324 572 1324 q 498 1301 517 1324 q 479 1252 479 1279 q 498 1200 479 1222 q 545 1179 518 1179 q 591 1200 572 1179 q 610 1252 610 1222 m 777 399 q 552 930 704 576 q 290 275 494 798 q 777 399 559 317 z "},"è":{"ha":1044,"x_min":42,"x_max":1015,"o":"m 1015 686 q 922 639 1015 650 q 236 509 472 587 q 267 175 241 336 q 560 208 395 175 q 850 271 705 239 q 891 277 875 277 q 947 229 947 277 q 926 165 947 198 q 878 117 905 132 q 567 15 764 52 q 236 -14 399 -14 q 126 31 153 -14 q 99 476 110 60 q 42 563 42 496 q 94 644 42 624 l 95 644 q 85 936 85 783 q 88 1006 85 1002 q 121 1066 94 1046 q 190 1095 134 1078 q 334 1141 237 1109 q 164 1255 275 1175 q 136 1333 126 1283 q 165 1390 141 1366 q 220 1415 190 1421 q 358 1317 236 1412 q 532 1177 468 1232 q 547 1177 538 1177 l 604 1177 q 707 1172 678 1179 q 793 1120 757 1161 q 829 1046 829 1080 q 746 993 829 1000 q 487 966 541 975 q 239 886 380 945 q 232 688 232 792 q 814 783 555 783 q 892 777 864 783 q 968 747 928 773 q 1015 686 1015 716 z "},"é":{"ha":1044,"x_min":42,"x_max":1015,"o":"m 1015 686 q 922 639 1015 650 q 236 509 472 587 q 267 175 241 336 q 560 208 395 175 q 850 271 705 239 q 891 277 875 277 q 947 229 947 277 q 926 165 947 198 q 878 117 905 132 q 567 15 764 52 q 236 -14 399 -14 q 126 31 153 -14 q 99 476 110 60 q 42 563 42 496 q 94 644 42 624 l 95 644 q 85 936 85 783 q 88 1006 85 1002 q 121 1066 94 1046 q 190 1095 134 1078 q 286 1124 222 1104 l 289 1130 q 457 1267 320 1160 q 620 1382 600 1379 q 674 1358 647 1388 q 703 1301 696 1332 q 675 1221 712 1252 q 618 1177 650 1200 q 712 1171 682 1179 q 793 1120 758 1158 q 829 1046 829 1080 q 746 993 829 1000 q 487 966 541 975 q 239 886 380 945 q 232 688 232 792 q 814 783 555 783 q 892 777 864 783 q 968 747 928 773 q 1015 686 1015 716 z "},"ê":{"ha":1044,"x_min":42,"x_max":1015,"o":"m 1015 686 q 922 639 1015 650 q 236 509 472 587 q 267 175 241 336 q 560 208 395 175 q 850 271 705 239 q 891 277 875 277 q 947 229 947 277 q 926 165 947 198 q 878 117 905 132 q 567 15 764 52 q 236 -14 399 -14 q 126 31 153 -14 q 99 476 110 60 q 42 563 42 496 q 94 644 42 624 l 95 644 q 85 936 85 783 q 88 1006 85 1002 q 121 1066 94 1046 q 190 1095 134 1078 q 222 1104 205 1099 q 213 1126 213 1115 q 236 1168 213 1141 q 395 1401 354 1306 q 445 1449 414 1449 q 477 1438 457 1449 q 503 1413 498 1428 q 669 1211 537 1374 q 699 1173 680 1199 q 791 1122 754 1164 q 829 1046 829 1080 q 746 993 829 1000 q 487 966 541 975 q 239 886 380 945 q 232 688 232 792 q 814 783 555 783 q 892 777 864 783 q 968 747 928 773 q 1015 686 1015 716 m 581 1177 q 458 1322 524 1259 q 335 1141 435 1287 q 547 1177 457 1177 l 581 1177 z "},"ë":{"ha":1044,"x_min":42,"x_max":1015,"o":"m 750 1392 q 736 1313 750 1377 q 715 1233 722 1249 q 655 1206 703 1206 q 605 1240 605 1206 q 616 1385 605 1333 q 689 1415 620 1415 q 750 1392 750 1415 m 385 1401 q 371 1322 385 1386 q 350 1242 357 1259 q 290 1215 338 1215 q 240 1251 240 1215 q 250 1394 240 1343 q 324 1426 254 1426 q 385 1401 385 1426 m 1015 686 q 922 639 1015 650 q 236 509 472 587 q 267 175 241 336 q 560 208 395 175 q 850 271 705 239 q 891 277 875 277 q 947 229 947 277 q 926 165 947 198 q 878 117 905 132 q 567 15 764 52 q 236 -14 399 -14 q 126 31 153 -14 q 99 476 110 60 q 42 563 42 496 q 94 644 42 624 l 95 644 q 85 936 85 783 q 88 1006 85 1002 q 121 1066 94 1046 q 190 1095 134 1078 q 365 1150 278 1122 q 547 1177 467 1177 l 604 1177 q 707 1172 678 1179 q 793 1120 757 1161 q 829 1046 829 1080 q 746 993 829 1000 q 487 966 541 975 q 239 886 380 945 q 232 688 232 792 q 814 783 555 783 q 892 777 864 783 q 968 747 928 773 q 1015 686 1015 716 z "},"ì":{"ha":403,"x_min":-132,"x_max":323,"o":"m 316 1107 q 300 1067 312 1086 q 281 916 293 1017 q 266 590 266 754 q 283 232 266 381 q 294 164 285 224 q 301 96 301 123 q 259 46 301 66 q 190 30 224 30 q 130 119 130 30 q 130 153 130 130 q 132 183 132 174 l 130 208 q 118 614 129 311 q 110 1023 110 869 q 138 1105 110 1076 q -95 1260 58 1153 q -122 1339 -132 1289 q -94 1396 -117 1371 q -39 1421 -68 1427 q 123 1305 -19 1416 q 291 1168 259 1199 q 316 1107 323 1137 z "},"í":{"ha":403,"x_min":110,"x_max":566,"o":"m 556 1316 q 529 1234 566 1265 q 416 1157 486 1200 q 300 1085 358 1120 q 281 916 293 1028 q 266 590 266 754 q 283 232 266 381 q 294 164 285 224 q 301 96 301 123 q 259 46 301 66 q 190 30 224 30 q 130 119 130 30 q 130 153 130 130 q 132 183 132 174 l 130 208 q 118 614 129 311 q 110 1023 110 869 q 119 1076 110 1053 q 118 1082 118 1080 q 142 1143 111 1112 q 309 1280 174 1173 q 472 1396 454 1393 q 528 1373 502 1401 q 556 1316 551 1345 z "},"î":{"ha":403,"x_min":-49,"x_max":453,"o":"m 453 1103 q 438 1067 453 1088 q 403 1046 423 1046 q 358 1085 382 1046 q 197 1289 288 1202 q 62 1092 183 1270 q 8 1050 35 1050 q -28 1063 -7 1050 q -49 1093 -49 1076 q -24 1135 -49 1107 q 133 1369 94 1272 q 183 1415 153 1415 q 216 1404 195 1415 q 241 1381 236 1394 q 407 1177 277 1340 q 453 1103 453 1120 m 301 96 q 259 46 301 66 q 190 30 224 30 q 130 119 130 30 q 130 153 130 130 q 132 183 132 174 l 130 208 q 118 614 129 311 q 110 1023 110 869 q 245 1142 110 1142 q 300 1104 300 1142 q 293 1009 300 1066 q 281 916 282 926 q 266 590 266 754 q 283 232 266 381 q 294 164 285 224 q 301 96 301 123 z "},"ï":{"ha":403,"x_min":61,"x_max":404,"o":"m 404 1370 q 391 1290 404 1354 q 369 1211 377 1226 q 309 1183 357 1183 q 259 1218 259 1183 q 270 1363 259 1312 q 343 1393 274 1393 q 404 1370 404 1393 m 206 1379 q 192 1300 206 1364 q 171 1221 178 1236 q 111 1194 159 1194 q 61 1227 61 1194 q 71 1373 61 1321 q 144 1402 75 1402 q 206 1379 206 1402 m 301 96 q 259 46 301 66 q 190 30 224 30 q 130 119 130 30 q 130 153 130 130 q 132 183 132 174 l 130 208 q 118 614 129 309 q 110 1023 110 869 q 245 1142 110 1142 q 300 1104 300 1142 q 293 1009 300 1066 q 281 916 282 926 q 266 590 266 754 q 283 232 266 381 q 294 164 285 224 q 301 96 301 123 z "},"ñ":{"ha":1131,"x_min":73,"x_max":1066,"o":"m 806 1196 q 760 1127 806 1160 q 677 1095 715 1095 q 574 1126 643 1095 q 477 1158 506 1158 q 418 1126 452 1158 q 377 1095 385 1095 q 351 1123 361 1095 q 345 1166 345 1147 q 377 1228 345 1200 q 446 1256 410 1256 q 549 1225 479 1256 q 658 1194 618 1194 q 719 1221 686 1194 q 770 1268 745 1245 q 795 1241 785 1268 q 806 1196 806 1214 m 1066 1138 q 1054 1059 1066 1126 q 1000 445 1000 773 q 1006 236 1000 321 q 1015 180 1008 221 q 1020 125 1020 146 q 902 37 1020 37 q 854 65 852 37 l 240 760 q 232 509 232 628 q 251 152 232 293 q 262 98 252 144 q 269 42 269 64 q 228 -12 269 9 q 159 -33 193 -33 q 104 0 115 -33 q 85 420 98 16 q 73 868 73 795 q 84 1017 73 990 q 210 1081 109 1081 q 262 1062 245 1081 l 860 366 q 876 735 861 412 q 883 922 880 827 q 901 1108 888 1032 q 1019 1191 911 1191 q 1066 1138 1066 1191 z "},"ò":{"ha":1373,"x_min":61,"x_max":1318,"o":"m 1318 648 q 1105 180 1318 380 q 625 -12 895 -12 q 225 146 389 -12 q 61 540 61 305 q 208 937 61 758 q 562 1172 349 1108 q 392 1286 503 1207 q 363 1366 354 1316 q 393 1423 369 1397 q 448 1447 418 1453 q 597 1340 465 1444 q 769 1200 719 1246 q 1159 1037 1000 1195 q 1318 648 1318 879 m 1114 585 q 991 911 1114 772 q 680 1055 864 1055 q 372 909 499 1055 q 252 585 252 768 q 377 259 252 399 q 688 117 503 117 q 993 263 868 117 q 1114 585 1114 401 z "},"ó":{"ha":1373,"x_min":61,"x_max":1318,"o":"m 1318 648 q 1105 180 1318 380 q 625 -12 895 -12 q 225 146 389 -12 q 61 540 61 305 q 203 930 61 754 q 545 1168 339 1100 q 571 1207 551 1185 q 739 1344 602 1237 q 902 1459 882 1457 q 956 1436 929 1465 q 985 1379 978 1409 q 958 1298 994 1329 q 808 1199 910 1260 q 1171 1025 1025 1177 q 1318 648 1318 868 m 1114 585 q 991 911 1114 772 q 680 1055 864 1055 q 372 909 499 1055 q 252 585 252 768 q 377 259 252 399 q 688 117 503 117 q 993 263 868 117 q 1114 585 1114 401 z "},"ô":{"ha":1373,"x_min":61,"x_max":1318,"o":"m 1318 648 q 1105 180 1318 380 q 625 -12 895 -12 q 225 146 389 -12 q 61 540 61 305 q 163 876 61 719 q 419 1112 259 1025 q 419 1119 419 1116 q 444 1161 419 1134 q 601 1396 560 1298 q 650 1442 621 1442 q 683 1432 663 1442 q 709 1407 703 1423 q 875 1204 745 1369 q 892 1184 880 1199 q 1199 994 1080 1141 q 1318 648 1318 846 m 765 1200 q 663 1317 718 1264 q 568 1175 633 1270 q 753 1202 663 1202 l 765 1200 m 1114 585 q 991 911 1114 772 q 680 1055 864 1055 q 372 909 499 1055 q 252 585 252 768 q 377 259 252 399 q 688 117 503 117 q 993 263 868 117 q 1114 585 1114 401 z "},"õ":{"ha":1373,"x_min":61,"x_max":1318,"o":"m 1318 648 q 1105 180 1318 380 q 625 -12 895 -12 q 225 146 389 -12 q 61 540 61 305 q 263 996 61 802 q 720 1200 458 1188 q 604 1241 629 1241 q 545 1209 578 1241 q 503 1177 511 1177 q 477 1207 487 1177 q 471 1251 471 1230 q 503 1311 471 1283 q 572 1339 536 1339 q 675 1308 605 1339 q 785 1276 745 1276 q 846 1305 812 1276 q 898 1351 871 1328 q 922 1324 911 1351 q 932 1279 932 1297 q 857 1192 932 1229 q 1185 1008 1057 1157 q 1318 648 1318 856 m 1114 585 q 991 911 1114 772 q 680 1055 864 1055 q 372 909 499 1055 q 252 585 252 768 q 377 259 252 399 q 688 117 503 117 q 993 263 868 117 q 1114 585 1114 401 z "},"ö":{"ha":1373,"x_min":61,"x_max":1318,"o":"m 985 1413 q 971 1335 985 1398 q 949 1256 958 1271 q 890 1227 937 1227 q 841 1263 841 1227 q 850 1407 841 1355 q 924 1438 854 1438 q 985 1413 985 1438 m 620 1424 q 606 1344 620 1408 q 585 1265 591 1280 q 525 1237 572 1237 q 475 1272 475 1237 q 484 1416 475 1366 q 559 1447 488 1447 q 620 1424 620 1447 m 1318 648 q 1105 180 1318 380 q 625 -12 895 -12 q 225 146 389 -12 q 61 540 61 305 q 274 1006 61 810 q 753 1202 481 1202 q 1154 1042 989 1202 q 1318 648 1318 883 m 1114 585 q 991 911 1114 772 q 680 1055 864 1055 q 372 909 499 1055 q 252 585 252 768 q 377 259 252 399 q 688 117 503 117 q 993 263 868 117 q 1114 585 1114 401 z "},"ù":{"ha":1077,"x_min":90,"x_max":983,"o":"m 724 1065 q 699 1019 718 1038 q 651 1000 678 994 q 593 1032 628 1004 q 452 1122 553 1061 q 312 1217 358 1179 q 285 1297 275 1248 q 313 1354 290 1329 q 368 1379 339 1385 q 530 1263 387 1375 q 699 1125 667 1156 q 724 1065 730 1095 m 983 104 q 947 50 983 71 q 873 30 910 30 q 819 60 831 30 q 811 241 815 69 q 503 107 694 175 q 187 33 290 33 q 114 113 114 33 q 115 146 114 122 q 115 180 117 168 l 115 197 q 100 570 114 301 q 90 941 90 806 q 106 1085 90 1048 q 228 1143 133 1143 q 283 1104 283 1143 q 267 959 283 1109 q 248 490 248 793 q 271 241 248 262 q 297 235 279 235 q 551 311 361 235 q 803 425 700 372 q 788 947 788 742 q 804 1082 788 1044 q 918 1145 831 1145 q 982 1104 982 1145 q 975 1009 982 1066 q 963 916 964 925 q 947 548 947 755 q 967 248 947 403 q 983 104 983 117 z "},"ú":{"ha":1077,"x_min":90,"x_max":983,"o":"m 841 1303 q 812 1222 850 1253 q 674 1127 766 1184 q 532 1036 572 1065 q 473 1005 498 1009 q 427 1021 448 1000 q 401 1069 407 1043 q 427 1131 396 1100 q 594 1268 458 1161 q 757 1383 738 1381 q 811 1359 785 1389 q 841 1303 833 1333 m 983 104 q 947 50 983 71 q 873 30 910 30 q 819 60 831 30 q 811 241 815 69 q 503 107 694 175 q 187 33 290 33 q 114 113 114 33 q 115 146 114 122 q 115 180 117 168 l 115 197 q 100 570 114 301 q 90 941 90 806 q 106 1085 90 1048 q 228 1143 133 1143 q 283 1104 283 1143 q 267 959 283 1109 q 248 490 248 793 q 271 241 248 262 q 297 235 279 235 q 551 311 361 235 q 803 425 700 372 q 788 947 788 742 q 804 1082 788 1044 q 918 1145 831 1145 q 982 1104 982 1145 q 975 1009 982 1066 q 963 916 964 925 q 947 548 947 755 q 967 248 947 403 q 983 104 983 117 z "},"û":{"ha":1077,"x_min":90,"x_max":983,"o":"m 819 1166 q 805 1131 819 1152 q 769 1109 791 1109 q 726 1149 749 1109 q 564 1352 654 1265 q 429 1156 551 1333 q 374 1114 401 1114 q 338 1126 359 1114 q 317 1157 317 1139 q 342 1199 317 1171 q 500 1432 460 1336 q 551 1480 519 1480 q 583 1469 563 1480 q 609 1444 602 1458 q 773 1241 643 1404 q 819 1166 819 1184 m 983 104 q 947 50 983 71 q 873 30 910 30 q 819 60 831 30 q 811 241 815 69 q 503 107 694 175 q 187 33 290 33 q 114 113 114 33 q 115 146 114 122 q 115 180 117 168 l 115 197 q 100 570 114 301 q 90 941 90 806 q 106 1085 90 1048 q 228 1143 133 1143 q 283 1104 283 1143 q 267 959 283 1109 q 248 490 248 793 q 271 241 248 262 q 297 235 279 235 q 551 311 361 235 q 803 425 700 372 q 788 947 788 742 q 804 1082 788 1044 q 918 1145 831 1145 q 982 1104 982 1145 q 975 1009 982 1066 q 963 916 964 925 q 947 548 947 755 q 967 248 947 403 q 983 104 983 117 z "},"ü":{"ha":1077,"x_min":90,"x_max":983,"o":"m 826 1324 q 812 1244 826 1309 q 792 1165 799 1180 q 732 1138 779 1138 q 682 1172 682 1138 q 692 1317 682 1265 q 765 1347 696 1347 q 826 1324 826 1347 m 503 1333 q 489 1255 503 1318 q 468 1175 475 1191 q 408 1147 456 1147 q 358 1181 358 1147 q 368 1326 358 1275 q 442 1356 372 1356 q 503 1333 503 1356 m 983 104 q 947 50 983 71 q 873 30 910 30 q 819 60 831 30 q 811 241 815 69 q 503 107 694 175 q 187 33 290 33 q 114 113 114 33 q 115 146 114 122 q 115 180 117 168 l 115 197 q 100 570 114 301 q 90 941 90 806 q 106 1085 90 1048 q 228 1143 133 1143 q 283 1104 283 1143 q 267 959 283 1109 q 248 490 248 793 q 271 241 248 262 q 297 235 279 235 q 551 311 361 235 q 803 425 700 372 q 788 947 788 742 q 804 1082 788 1044 q 918 1145 831 1145 q 982 1104 982 1145 q 975 1009 982 1066 q 963 916 964 925 q 947 548 947 755 q 967 248 947 403 q 983 104 983 117 z "},"ý":{"ha":1019,"x_min":27,"x_max":1040,"o":"m 788 1320 q 760 1238 798 1270 q 621 1145 713 1202 q 479 1053 519 1082 q 420 1023 445 1027 q 374 1038 395 1017 q 349 1086 354 1059 q 374 1147 343 1116 q 541 1284 406 1177 q 704 1400 685 1397 q 758 1377 732 1405 q 788 1320 780 1350 m 1040 1096 q 978 994 1040 1078 q 898 888 937 941 q 475 194 632 525 q 423 73 450 134 q 327 4 385 4 q 267 22 296 4 q 232 72 232 45 q 438 453 232 80 l 247 704 q 50 970 178 791 q 27 1036 27 1005 q 54 1109 27 1065 q 109 1153 80 1153 q 138 1133 122 1153 q 201 1032 144 1124 q 514 586 339 806 q 745 977 544 639 q 844 1137 774 1032 q 925 1176 875 1176 q 998 1156 963 1176 q 1040 1096 1040 1131 z "},"ÿ":{"ha":1019,"x_min":27,"x_max":1040,"o":"m 785 1324 q 771 1244 785 1309 q 750 1165 757 1180 q 690 1138 738 1138 q 640 1172 640 1138 q 650 1317 640 1265 q 724 1347 654 1347 q 785 1324 785 1347 m 419 1333 q 406 1255 419 1318 q 385 1175 392 1191 q 326 1147 372 1147 q 275 1181 275 1147 q 285 1326 275 1275 q 358 1356 289 1356 q 419 1333 419 1356 m 1040 1096 q 978 994 1040 1078 q 898 888 937 941 q 475 194 632 525 q 423 73 450 134 q 327 4 385 4 q 267 22 296 4 q 232 72 232 45 q 438 453 232 80 l 247 704 q 50 970 178 791 q 27 1036 27 1005 q 54 1109 27 1065 q 109 1153 80 1153 q 138 1133 122 1153 q 201 1032 144 1124 q 514 586 339 806 q 745 977 544 639 q 844 1137 774 1032 q 925 1176 875 1176 q 998 1156 963 1176 q 1040 1096 1040 1131 z "},"Ÿ":{"ha":1019,"x_min":27,"x_max":1040,"o":"m 785 1324 q 771 1244 785 1309 q 750 1165 757 1180 q 690 1138 738 1138 q 640 1172 640 1138 q 650 1317 640 1265 q 724 1347 654 1347 q 785 1324 785 1347 m 419 1333 q 406 1255 419 1318 q 385 1175 392 1191 q 326 1147 372 1147 q 275 1181 275 1147 q 285 1326 275 1275 q 358 1356 289 1356 q 419 1333 419 1356 m 1040 1096 q 978 994 1040 1078 q 898 888 937 941 q 475 194 632 525 q 423 73 450 134 q 327 4 385 4 q 267 22 296 4 q 232 72 232 45 q 438 453 232 80 l 247 704 q 50 970 178 791 q 27 1036 27 1005 q 54 1109 27 1065 q 109 1153 80 1153 q 138 1133 122 1153 q 201 1032 144 1124 q 514 586 339 806 q 745 977 544 639 q 844 1137 774 1032 q 925 1176 875 1176 q 998 1156 963 1176 q 1040 1096 1040 1131 z "},"‘":{"ha":557,"x_min":102,"x_max":418,"o":"m 418 887 q 395 844 418 861 q 346 827 372 827 q 286 863 309 827 q 183 1055 262 898 q 102 1238 102 1219 q 136 1287 102 1268 q 197 1305 165 1305 q 267 1265 248 1305 q 350 1067 286 1226 q 418 887 418 901 z "},"’":{"ha":552,"x_min":161,"x_max":477,"o":"m 477 1237 q 396 1054 477 1218 q 293 863 316 898 q 239 827 270 827 q 187 844 210 827 q 161 887 161 860 q 183 953 161 909 q 244 1108 205 997 q 311 1263 282 1210 q 384 1305 332 1305 q 445 1287 415 1305 q 477 1237 477 1267 z "},"“":{"ha":768,"x_min":88,"x_max":658,"o":"m 658 892 q 635 850 658 868 q 586 833 613 833 q 525 871 552 833 q 422 1061 502 905 q 340 1246 340 1225 q 374 1294 340 1275 q 438 1312 406 1312 q 509 1270 487 1312 q 590 1074 524 1238 q 658 892 658 903 m 404 808 q 380 765 404 780 q 327 750 355 750 q 272 785 296 750 q 170 978 248 819 q 88 1161 88 1142 q 122 1210 88 1191 q 183 1226 152 1226 q 254 1184 232 1226 q 336 988 267 1160 q 404 808 404 817 z "},"”":{"ha":707,"x_min":109,"x_max":680,"o":"m 680 1160 q 597 977 680 1139 q 494 786 519 822 q 439 750 469 750 q 386 766 411 750 q 361 808 361 783 q 384 873 361 827 q 446 1029 407 920 q 510 1183 481 1133 q 585 1226 533 1226 q 648 1208 617 1226 q 680 1160 680 1191 m 425 1245 q 343 1061 425 1225 q 241 871 264 905 q 180 833 216 833 q 131 850 153 833 q 109 892 109 867 q 130 958 109 914 q 191 1114 152 1002 q 256 1270 229 1217 q 331 1312 279 1312 q 392 1294 362 1312 q 425 1245 425 1274 z "},"…":{"ha":1111,"x_min":140,"x_max":997,"o":"m 997 251 q 980 152 997 232 q 954 54 963 72 q 880 19 939 19 q 818 62 818 19 q 829 243 818 178 q 921 281 836 281 q 997 251 997 281 m 658 250 q 641 151 658 231 q 616 53 624 71 q 541 18 600 18 q 479 61 479 18 q 490 241 479 176 q 582 279 498 279 q 658 250 658 279 m 320 248 q 302 149 320 229 q 277 52 285 69 q 203 16 262 16 q 140 60 140 16 q 152 240 140 175 q 243 278 159 278 q 320 248 320 278 z "},"™":{"ha":1377,"x_min":84,"x_max":1289,"o":"m 1289 675 q 1265 633 1289 656 q 1225 610 1242 610 q 1205 623 1214 610 q 1142 808 1196 635 q 1077 1021 1109 914 q 1005 772 1040 898 q 905 571 940 571 q 724 971 852 571 q 567 576 612 640 q 545 563 557 563 q 505 594 524 563 q 484 646 486 623 q 518 719 495 671 q 640 1017 591 871 q 678 1145 652 1059 q 719 1185 692 1185 q 750 1161 738 1185 q 772 1085 757 1135 q 831 921 792 1017 q 901 761 867 842 q 974 989 935 852 q 1039 1218 1038 1213 q 1084 1257 1051 1257 q 1119 1208 1104 1257 q 1137 1139 1119 1207 q 1198 921 1171 998 q 1251 793 1223 857 q 1289 675 1289 694 m 517 1156 q 442 1126 517 1137 q 346 1120 395 1123 q 339 947 339 1034 q 358 670 339 807 q 369 590 369 593 q 347 558 369 572 q 305 544 326 544 q 275 562 283 544 q 255 1100 259 593 q 122 1059 126 1059 q 94 1081 104 1059 q 84 1116 84 1097 q 199 1208 84 1179 q 372 1227 278 1227 q 460 1214 418 1227 q 517 1156 517 1194 z "},"¡":{"ha":551,"x_min":84,"x_max":568,"o":"m 84 3 q 174 202 84 12 q 288 445 231 323 q 363 699 350 590 q 372 776 368 738 q 433 811 382 811 q 505 770 505 811 q 495 711 505 746 q 479 651 480 655 q 418 316 448 483 q 327 3 372 84 q 214 -39 304 -39 q 141 -31 182 -39 q 84 3 84 -19 m 388 972 q 406 1069 388 991 q 431 1165 423 1147 q 505 1198 446 1198 q 568 1157 568 1198 q 557 983 568 1042 q 464 949 552 949 q 388 972 388 949 z "},"¿":{"ha":1104,"x_min":98,"x_max":1065,"o":"m 98 330 q 178 505 98 425 q 817 711 357 681 q 836 788 829 774 q 906 817 854 817 q 974 783 974 817 q 948 576 974 593 q 799 571 941 571 q 403 483 503 571 q 326 347 326 415 q 450 183 326 247 q 665 130 553 130 q 831 174 743 130 q 967 251 886 198 q 1042 294 1029 294 q 1065 248 1065 294 q 1027 149 1065 186 q 810 24 947 73 q 563 -20 680 -20 q 255 69 396 -20 q 98 330 98 171 m 849 1020 q 866 1097 849 1032 q 890 1173 883 1161 q 964 1202 906 1202 q 1028 1161 1028 1202 q 1016 1035 1028 1089 q 921 997 1009 997 q 849 1020 849 997 z "},"´":{"ha":537,"x_min":62,"x_max":491,"o":"m 127 884 q 84 916 100 895 q 72 966 62 939 q 110 1019 79 987 q 218 1149 145 1055 q 328 1275 286 1234 q 412 1293 363 1308 q 465 1256 442 1283 q 483 1200 491 1227 q 347 1053 476 1181 q 190 903 224 930 q 127 884 156 876 z "}}}
